<svg version="1.1" viewBox="0.0 0.0 720.0 720.0" fill="none" stroke="none" stroke-linecap="square" stroke-miterlimit="10" xmlns:xlink="http://www.w3.org/1999/xlink" xmlns="http://www.w3.org/2000/svg"><clipPath id="p.0"><path d="m0 0l720.0 0l0 720.0l-720.0 0l0 -720.0z" clip-rule="nonzero"/></clipPath><g clip-path="url(#p.0)"><path fill="#000000" fill-opacity="0.0" d="m0 0l720.0 0l0 720.0l-720.0 0z" fill-rule="evenodd"/><defs><radialGradient id="p.1" gradientUnits="userSpaceOnUse" gradientTransform="matrix(23.648910257448 0.0 0.0 23.648910257448 0.0 0.0)" spreadMethod="pad" cx="15.222688744679951" cy="12.34729198179596" fx="15.222688744679951" fy="12.34729198179596" r="23.648910522460938"><stop offset="0.0" stop-color="#045093"/><stop offset="0.99999994" stop-color="#6f95b6"/><stop offset="1.0" stop-color="#d9d9d9"/></radialGradient></defs><path fill="url(#p.1)" d="m0 -136.0l720.0 0l0 856.0l-720.0 0z" fill-rule="evenodd"/><path stroke="#ffffff" stroke-width="1.0" stroke-linejoin="round" stroke-linecap="butt" d="m0 -136.0l720.0 0l0 856.0l-720.0 0z" fill-rule="evenodd"/><path fill="#ffffff" d="m362.9392 200.79688q42.65625 0 75.1875 17.34375q32.53125 17.328125 51.203125 49.0625q18.671875 31.734375 18.671875 74.390625q0 42.671875 -18.9375 76.546875q-18.9375 33.859375 -52.8125 53.59375q-33.859375 19.734375 -79.1875 19.734375q-41.59375 0 -74.40625 -17.59375q-32.796875 -17.609375 -51.734375 -49.34375q-18.921875 -31.734375 -18.921875 -74.390625q0 -42.140625 18.65625 -76.0q18.671875 -33.875 52.796875 -53.609375q34.140625 -19.734375 79.484375 -19.734375zm-4.8125 9.609375q-28.796875 0 -47.203125 36.53125q-18.390625 36.53125 -18.390625 101.59375q0 48.0 9.59375 77.34375q9.609375 29.328125 25.34375 42.65625q15.734375 13.328125 34.390625 13.328125q28.8125 0 47.203125 -36.796875q18.40625 -36.796875 18.40625 -101.859375q0 -48.0 -9.609375 -77.328125q-9.59375 -29.34375 -25.328125 -42.40625q-15.734375 -13.0625 -34.40625 -13.0625z" fill-rule="nonzero"/></g></svg>