<svg version="1.1" viewBox="0.0 0.0 720.0 720.0" fill="none" stroke="none" stroke-linecap="square" stroke-miterlimit="10" xmlns:xlink="http://www.w3.org/1999/xlink" xmlns="http://www.w3.org/2000/svg"><clipPath id="p.0"><path d="m0 0l720.0 0l0 720.0l-720.0 0l0 -720.0z" clip-rule="nonzero"/></clipPath><g clip-path="url(#p.0)"><path fill="#000000" fill-opacity="0.0" d="m0 0l720.0 0l0 720.0l-720.0 0z" fill-rule="evenodd"/><defs><radialGradient id="p.1" gradientUnits="userSpaceOnUse" gradientTransform="matrix(23.648910257448 0.0 0.0 23.648910257448 0.0 0.0)" spreadMethod="pad" cx="15.222688744679951" cy="12.34729198179596" fx="15.222688744679951" fy="12.34729198179596" r="23.648910522460938"><stop offset="0.0" stop-color="#045093"/><stop offset="0.99999994" stop-color="#6f95b6"/><stop offset="1.0" stop-color="#d9d9d9"/></radialGradient></defs><path fill="url(#p.1)" d="m0 -136.0l720.0 0l0 856.0l-720.0 0z" fill-rule="evenodd"/><path stroke="#ffffff" stroke-width="1.0" stroke-linejoin="round" stroke-linecap="butt" d="m0 -136.0l720.0 0l0 856.0l-720.0 0z" fill-rule="evenodd"/><path fill="#ffffff" d="m408.27393 202.40625l0 229.85938q0 23.46875 8.796875 32.0q8.796875 8.53125 29.59375 8.53125l0 11.203125q-10.671875 -0.53125 -31.203125 -1.328125q-20.53125 -0.8125 -42.390625 -0.8125q-27.203125 0 -52.546875 0.8125q-25.328125 0.796875 -39.1875 1.328125l0 -11.203125q24.0 0 37.0625 -8.796875q13.0625 -8.796875 13.0625 -34.9375l0 -130.125q0 -25.609375 -4.265625 -37.875q-4.265625 -12.265625 -16.0 -16.0q-11.734375 -3.734375 -32.0 -3.734375l0 -11.71875q45.875 -1.078125 76.0 -6.9375q30.140625 -5.875 53.078125 -20.265625z" fill-rule="nonzero"/></g></svg>