<svg version="1.1" viewBox="0.0 0.0 720.0 720.0" fill="none" stroke="none" stroke-linecap="square" stroke-miterlimit="10" xmlns:xlink="http://www.w3.org/1999/xlink" xmlns="http://www.w3.org/2000/svg"><clipPath id="p.0"><path d="m0 0l720.0 0l0 720.0l-720.0 0l0 -720.0z" clip-rule="nonzero"/></clipPath><g clip-path="url(#p.0)"><path fill="#000000" fill-opacity="0.0" d="m0 0l720.0 0l0 720.0l-720.0 0z" fill-rule="evenodd"/><defs><radialGradient id="p.1" gradientUnits="userSpaceOnUse" gradientTransform="matrix(23.648910257448 0.0 0.0 23.648910257448 0.0 0.0)" spreadMethod="pad" cx="15.222688744679951" cy="12.34729198179596" fx="15.222688744679951" fy="12.34729198179596" r="23.648910522460938"><stop offset="0.0" stop-color="#045093"/><stop offset="0.99999994" stop-color="#6f95b6"/><stop offset="1.0" stop-color="#d9d9d9"/></radialGradient></defs><path fill="url(#p.1)" d="m0 -136.0l720.0 0l0 856.0l-720.0 0z" fill-rule="evenodd"/><path stroke="#ffffff" stroke-width="1.0" stroke-linejoin="round" stroke-linecap="butt" d="m0 -136.0l720.0 0l0 856.0l-720.0 0z" fill-rule="evenodd"/><path fill="#ffffff" d="m367.2066 200.79688q41.0625 0 65.0625 17.609375q24.0 17.59375 24.0 50.125q0 20.796875 -10.40625 37.875q-10.390625 17.0625 -27.46875 32.265625q-17.0625 15.203125 -36.53125 28.53125q-19.46875 13.328125 -37.609375 26.40625q-18.125 13.0625 -30.921875 26.921875l115.203125 0q21.859375 0 27.71875 -5.328125q5.875 -5.328125 8.015625 -18.671875l11.203125 0q0 35.734375 0.53125 55.46875q0.53125 19.734375 1.59375 34.671875q-4.796875 -1.078125 -17.59375 -1.609375q-12.796875 -0.53125 -29.34375 -0.796875q-16.53125 -0.265625 -32.53125 -0.265625l-155.18752 0l0 -10.140625q14.92189 -16.0 36.781265 -35.1875q21.875 -19.203125 42.9375 -42.671875q21.078125 -23.46875 35.46875 -50.921875q14.40625 -27.46875 14.40625 -58.9375q0 -28.8125 -12.796875 -41.609375q-12.796875 -12.796875 -36.796875 -12.796875q-22.9375 0 -40.28125 10.40625q-17.328125 10.390625 -31.187515 30.65625l-9.078125 -5.328125q10.671875 -18.140625 26.937515 -33.328125q16.265625 -15.203125 40.265625 -24.265625q24.0 -9.078125 57.609375 -9.078125z" fill-rule="nonzero"/></g></svg>