<svg version="1.1" viewBox="0.0 0.0 720.0 720.0" fill="none" stroke="none" stroke-linecap="square" stroke-miterlimit="10" xmlns:xlink="http://www.w3.org/1999/xlink" xmlns="http://www.w3.org/2000/svg"><clipPath id="p.0"><path d="m0 0l720.0 0l0 720.0l-720.0 0l0 -720.0z" clip-rule="nonzero"/></clipPath><g clip-path="url(#p.0)"><path fill="#000000" fill-opacity="0.0" d="m0 0l720.0 0l0 720.0l-720.0 0z" fill-rule="evenodd"/><defs><radialGradient id="p.1" gradientUnits="userSpaceOnUse" gradientTransform="matrix(23.648910257448 0.0 0.0 23.648910257448 0.0 0.0)" spreadMethod="pad" cx="15.222688744679951" cy="12.34729198179596" fx="15.222688744679951" fy="12.34729198179596" r="23.648910522460938"><stop offset="0.0" stop-color="#045093"/><stop offset="0.99999994" stop-color="#6f95b6"/><stop offset="1.0" stop-color="#d9d9d9"/></radialGradient></defs><path fill="url(#p.1)" d="m0 -136.0l720.0 0l0 856.0l-720.0 0z" fill-rule="evenodd"/><path stroke="#ffffff" stroke-width="1.0" stroke-linejoin="round" stroke-linecap="butt" d="m0 -136.0l720.0 0l0 856.0l-720.0 0z" fill-rule="evenodd"/><path fill="#ffffff" d="m361.07108 200.79688q26.125 0 46.921875 7.203125q20.8125 7.203125 32.53125 20.8125q11.734375 13.59375 11.734375 33.328125q0 20.265625 -13.0625 37.875q-13.0625 17.59375 -37.328125 30.65625q-24.265625 13.0625 -57.875 19.46875q36.28125 -1.609375 65.078125 7.46875q28.796875 9.0625 45.59375 27.46875q16.796875 18.390625 16.796875 46.125q0 24.53125 -13.0625 45.328125q-13.0625 20.796875 -36.0 37.0625q-22.9375 16.265625 -52.0 27.734375q-29.0625 11.46875 -61.0625 17.328125q-32.0 5.875 -64.0 5.875l0 -10.671875q25.0625 -0.53125 50.921875 -8.796875q25.875 -8.265625 47.46875 -23.46875q21.609375 -15.1875 34.9375 -37.859375q13.328125 -22.671875 13.328125 -52.0q0 -31.46875 -14.9375 -51.734375q-14.921875 -20.265625 -41.0625 -22.40625q-8.0 3.734375 -14.40625 6.140625q-6.390625 2.40625 -12.78125 2.40625q-4.8125 0 -7.484375 -1.59375q-2.65625 -1.609375 -2.65625 -5.875q0 -6.40625 5.328125 -9.0625q5.34375 -2.671875 11.734375 -2.671875q4.265625 0 8.796875 0.796875q4.546875 0.796875 9.875 1.328125q22.9375 -16.0 32.0 -34.390625q9.0625 -18.40625 9.0625 -37.0625q0 -24.0 -12.53125 -35.46875q-12.53125 -11.46875 -34.9375 -11.46875q-20.796875 0 -38.9375 10.40625q-18.125 10.390625 -30.390625 31.1875l-9.59375 -4.796875q9.59375 -17.59375 23.984375 -32.796875q14.40625 -15.203125 35.734375 -24.53125q21.34375 -9.34375 52.28125 -9.34375z" fill-rule="nonzero"/></g></svg>