<svg version="1.1" viewBox="0.0 0.0 720.0 720.0" fill="none" stroke="none" stroke-linecap="square" stroke-miterlimit="10" xmlns:xlink="http://www.w3.org/1999/xlink" xmlns="http://www.w3.org/2000/svg"><clipPath id="p.0"><path d="m0 0l720.0 0l0 720.0l-720.0 0l0 -720.0z" clip-rule="nonzero"/></clipPath><g clip-path="url(#p.0)"><path fill="#000000" fill-opacity="0.0" d="m0 0l720.0 0l0 720.0l-720.0 0z" fill-rule="evenodd"/><defs><radialGradient id="p.1" gradientUnits="userSpaceOnUse" gradientTransform="matrix(23.648910257448 0.0 0.0 23.648910257448 0.0 0.0)" spreadMethod="pad" cx="15.222688744679951" cy="12.34729198179596" fx="15.222688744679951" fy="12.34729198179596" r="23.648910522460938"><stop offset="0.0" stop-color="#045093"/><stop offset="0.99999994" stop-color="#6f95b6"/><stop offset="1.0" stop-color="#d9d9d9"/></radialGradient></defs><path fill="url(#p.1)" d="m0 -136.0l720.0 0l0 856.0l-720.0 0z" fill-rule="evenodd"/><path stroke="#ffffff" stroke-width="1.0" stroke-linejoin="round" stroke-linecap="butt" d="m0 -136.0l720.0 0l0 856.0l-720.0 0z" fill-rule="evenodd"/><path fill="#ffffff" d="m422.4045 200.79688l2.125 13.875l-166.39062 213.32812l7.46875 -18.125l169.59375 0q21.859375 0 27.71875 -5.328125q5.875 -5.34375 8.015625 -18.671875l11.203125 0q0 32.0 0.53125 49.859375q0.53125 17.859375 1.59375 31.734375q-3.734375 -1.0625 -13.875 -1.328125q-10.125 -0.28125 -24.0 -0.8125q-13.859375 -0.53125 -28.0 -0.53125q-14.125 0 -26.390625 0l-168.53125 0l0 -11.203125l198.9375 -252.79688zm8.53125 0l0 358.40625l-61.875 0l0 -283.20312l53.34375 -75.203125l8.53125 0z" fill-rule="nonzero"/></g></svg>