<svg version="1.1" viewBox="0.0 0.0 720.0 720.0" fill="none" stroke="none" stroke-linecap="square" stroke-miterlimit="10" xmlns:xlink="http://www.w3.org/1999/xlink" xmlns="http://www.w3.org/2000/svg"><clipPath id="p.0"><path d="m0 0l720.0 0l0 720.0l-720.0 0l0 -720.0z" clip-rule="nonzero"/></clipPath><g clip-path="url(#p.0)"><path fill="#000000" fill-opacity="0.0" d="m0 0l720.0 0l0 720.0l-720.0 0z" fill-rule="evenodd"/><defs><radialGradient id="p.1" gradientUnits="userSpaceOnUse" gradientTransform="matrix(23.648910257448 0.0 0.0 23.648910257448 0.0 0.0)" spreadMethod="pad" cx="15.222688744679951" cy="12.34729198179596" fx="15.222688744679951" fy="12.34729198179596" r="23.648910522460938"><stop offset="0.0" stop-color="#045093"/><stop offset="0.99999994" stop-color="#6f95b6"/><stop offset="1.0" stop-color="#d9d9d9"/></radialGradient></defs><path fill="url(#p.1)" d="m0 -136.0l720.0 0l0 856.0l-720.0 0z" fill-rule="evenodd"/><path stroke="#ffffff" stroke-width="1.0" stroke-linejoin="round" stroke-linecap="butt" d="m0 -136.0l720.0 0l0 856.0l-720.0 0z" fill-rule="evenodd"/><path fill="#ffffff" d="m442.92932 188.0q0 35.203125 0.53125 54.671875q0.53125 19.46875 1.609375 34.9375q-4.265625 -1.078125 -16.265625 -1.609375q-12.0 -0.53125 -27.46875 -0.796875q-15.46875 -0.265625 -30.40625 -0.265625l-82.125 0l-8.53125 91.203125q12.796875 -9.078125 32.796875 -15.203125q20.0 -6.140625 47.734375 -6.140625q35.734375 0 58.65625 11.203125q22.9375 11.203125 34.140625 30.40625q11.203125 19.1875 11.203125 42.65625q0 30.9375 -18.40625 55.46875q-18.40625 24.53125 -49.34375 42.125q-30.921875 17.609375 -68.265625 26.9375q-37.328125 9.34375 -75.187485 9.34375l0 -9.609375q24.531235 0 48.26561 -8.0q23.734375 -8.0 42.390625 -23.46875q18.671875 -15.453125 29.875 -37.859375q11.203125 -22.40625 11.203125 -51.734375q0 -33.0625 -15.46875 -51.1875q-15.46875 -18.140625 -45.859375 -18.140625q-15.46875 0 -26.40625 4.0q-10.9375 4.0 -21.59375 11.46875l-7.46875 -4.8125l17.0625 -166.92188q5.859375 1.0625 13.59375 1.59375q7.734375 0.53125 15.203125 0.53125l88.0 0q15.46875 0 21.59375 -4.796875q6.140625 -4.796875 7.734375 -16.0l11.203125 0z" fill-rule="nonzero"/></g></svg>