<svg version="1.1" viewBox="0.0 0.0 720.0 720.0" fill="none" stroke="none" stroke-linecap="square" stroke-miterlimit="10" xmlns:xlink="http://www.w3.org/1999/xlink" xmlns="http://www.w3.org/2000/svg"><clipPath id="p.0"><path d="m0 0l720.0 0l0 720.0l-720.0 0l0 -720.0z" clip-rule="nonzero"/></clipPath><g clip-path="url(#p.0)"><path fill="#000000" fill-opacity="0.0" d="m0 0l720.0 0l0 720.0l-720.0 0z" fill-rule="evenodd"/><defs><radialGradient id="p.1" gradientUnits="userSpaceOnUse" gradientTransform="matrix(23.648910257448 0.0 0.0 23.648910257448 0.0 0.0)" spreadMethod="pad" cx="15.222688744679951" cy="12.34729198179596" fx="15.222688744679951" fy="12.34729198179596" r="23.648910522460938"><stop offset="0.0" stop-color="#045093"/><stop offset="0.99999994" stop-color="#6f95b6"/><stop offset="1.0" stop-color="#d9d9d9"/></radialGradient></defs><path fill="url(#p.1)" d="m0 -136.0l720.0 0l0 856.0l-720.0 0z" fill-rule="evenodd"/><path stroke="#ffffff" stroke-width="1.0" stroke-linejoin="round" stroke-linecap="butt" d="m0 -136.0l720.0 0l0 856.0l-720.0 0z" fill-rule="evenodd"/><path fill="#ffffff" d="m448.26086 98.40625l2.140625 10.671875q-19.203125 6.390625 -38.40625 15.46875q-19.203125 9.0625 -36.53125 25.0625q-17.328125 16.0 -30.671875 40.796875q-13.328125 24.796875 -21.0625 62.140625q-7.734375 37.328125 -7.734375 90.125q0 52.796875 7.734375 82.9375q7.734375 30.125 19.46875 42.65625q11.734375 12.53125 22.9375 12.53125q12.265625 0 22.921875 -11.1875q10.671875 -11.203125 17.34375 -35.734375q6.671875 -24.546875 6.671875 -64.546875q0 -38.390625 -6.140625 -61.328125q-6.140625 -22.9375 -16.28125 -33.0625q-10.125 -10.140625 -22.921875 -10.140625q-9.0625 0 -20.265625 5.34375q-11.203125 5.328125 -20.796875 17.0625q-9.59375 11.734375 -13.859375 33.0625l-4.8125 -2.125q3.203125 -25.609375 15.734375 -40.796875q12.53125 -15.203125 30.125 -21.609375q17.609375 -6.40625 35.21875 -6.40625q28.796875 0 52.25 13.875q23.46875 13.859375 37.875 39.46875q14.40625 25.59375 14.40625 61.859375q0 41.0625 -18.140625 69.34375q-18.125 28.265625 -48.53125 42.9375q-30.40625 14.65625 -66.125 14.65625q-58.671875 0 -92.015625 -39.734375q-33.328125 -39.734375 -33.328125 -112.265625q0 -48.0 13.859375 -85.328125q13.875 -37.34375 36.8125 -64.796875q22.9375 -27.46875 50.9375 -46.140625q28.0 -18.671875 57.0625 -29.59375q29.0625 -10.9375 54.125 -15.203125z" fill-rule="nonzero"/></g></svg>