<svg version="1.1" viewBox="0.0 0.0 720.0 720.0" fill="none" stroke="none" stroke-linecap="square" stroke-miterlimit="10" xmlns:xlink="http://www.w3.org/1999/xlink" xmlns="http://www.w3.org/2000/svg"><clipPath id="p.0"><path d="m0 0l720.0 0l0 720.0l-720.0 0l0 -720.0z" clip-rule="nonzero"/></clipPath><g clip-path="url(#p.0)"><path fill="#000000" fill-opacity="0.0" d="m0 0l720.0 0l0 720.0l-720.0 0z" fill-rule="evenodd"/><defs><radialGradient id="p.1" gradientUnits="userSpaceOnUse" gradientTransform="matrix(23.648910257448 0.0 0.0 23.648910257448 0.0 0.0)" spreadMethod="pad" cx="15.222688744679951" cy="12.34729198179596" fx="15.222688744679951" fy="12.34729198179596" r="23.648910522460938"><stop offset="0.0" stop-color="#045093"/><stop offset="0.99999994" stop-color="#6f95b6"/><stop offset="1.0" stop-color="#d9d9d9"/></radialGradient></defs><path fill="url(#p.1)" d="m0 -136.0l720.0 0l0 856.0l-720.0 0z" fill-rule="evenodd"/><path stroke="#ffffff" stroke-width="1.0" stroke-linejoin="round" stroke-linecap="butt" d="m0 -136.0l720.0 0l0 856.0l-720.0 0z" fill-rule="evenodd"/><path fill="#ffffff" d="m250.9335 206.14062q4.796875 1.0625 17.59375 1.59375q12.8125 0.53125 29.34375 0.796875q16.53125 0.265625 32.53125 0.265625l150.39062 0l0 11.203125q-10.125 24.0 -25.859375 51.46875q-15.734375 27.46875 -31.46875 59.734375q-15.734375 32.265625 -26.140625 69.328125q-10.390625 37.0625 -10.390625 80.265625q0 3.203125 0.796875 11.734375q0.796875 8.53125 1.328125 17.328125q0.546875 8.8125 0.546875 14.140625q0 14.9375 -9.609375 26.9375q-9.59375 12.0 -29.328125 12.0q-19.734375 0 -29.34375 -13.34375q-9.59375 -13.328125 -9.59375 -33.59375q0 -29.328125 10.671875 -58.125q10.671875 -28.8125 27.734375 -56.8125q17.0625 -28.0 36.796875 -54.65625q19.734375 -26.671875 38.65625 -51.203125q18.9375 -24.53125 32.8125 -46.40625l-12.265625 24.53125l-146.14062 0q-21.859375 0 -27.734375 5.34375q-5.859375 5.328125 -8.0 18.65625l-11.1875 0q0 -35.1875 -0.546875 -55.71875q-0.53125 -20.546875 -1.59375 -35.46875z" fill-rule="nonzero"/></g></svg>