<svg version="1.1" viewBox="0.0 0.0 720.0 720.0" fill="none" stroke="none" stroke-linecap="square" stroke-miterlimit="10" xmlns:xlink="http://www.w3.org/1999/xlink" xmlns="http://www.w3.org/2000/svg"><clipPath id="p.0"><path d="m0 0l720.0 0l0 720.0l-720.0 0l0 -720.0z" clip-rule="nonzero"/></clipPath><g clip-path="url(#p.0)"><path fill="#000000" fill-opacity="0.0" d="m0 0l720.0 0l0 720.0l-720.0 0z" fill-rule="evenodd"/><defs><radialGradient id="p.1" gradientUnits="userSpaceOnUse" gradientTransform="matrix(23.648910257448 0.0 0.0 23.648910257448 0.0 0.0)" spreadMethod="pad" cx="15.222688744679951" cy="12.34729198179596" fx="15.222688744679951" fy="12.34729198179596" r="23.648910522460938"><stop offset="0.0" stop-color="#045093"/><stop offset="0.99999994" stop-color="#6f95b6"/><stop offset="1.0" stop-color="#d9d9d9"/></radialGradient></defs><path fill="url(#p.1)" d="m0 -136.0l720.0 0l0 856.0l-720.0 0z" fill-rule="evenodd"/><path stroke="#ffffff" stroke-width="1.0" stroke-linejoin="round" stroke-linecap="butt" d="m0 -136.0l720.0 0l0 856.0l-720.0 0z" fill-rule="evenodd"/><path fill="#ffffff" d="m363.99524 98.9375q30.40625 0 54.140625 9.34375q23.734375 9.328125 37.0625 25.859375q13.328125 16.53125 13.328125 39.46875q0 28.796875 -21.0625 49.859375q-21.0625 21.0625 -58.390625 39.734375l-4.28125 -7.46875q8.546875 -10.671875 13.34375 -24.0q4.796875 -13.328125 6.65625 -27.71875q1.875 -14.40625 1.875 -26.140625q0 -32.53125 -12.53125 -50.9375q-12.53125 -18.40625 -34.40625 -18.40625q-18.125 0 -28.265625 12.265625q-10.125 12.265625 -10.125 32.0q0 22.9375 12.0 42.671875q12.0 19.734375 30.921875 37.34375q18.9375 17.59375 40.265625 35.203125q21.34375 17.59375 40.265625 36.265625q18.9375 18.65625 30.9375 39.71875q12.0 21.0625 12.0 46.671875q0 29.859375 -17.0625 52.265625q-17.0625 22.390625 -46.40625 35.46875q-29.328125 13.0625 -67.1875 13.0625q-33.078125 0 -61.34375 -10.125q-28.265625 -10.140625 -45.328125 -30.671875q-17.0625 -20.53125 -17.0625 -50.40625q0 -25.59375 12.265625 -45.59375q12.265625 -20.0 33.328125 -34.9375q21.0625 -14.9375 47.203125 -25.59375l4.265625 7.46875q-17.59375 17.59375 -24.265625 41.0625q-6.671875 23.46875 -6.671875 48.0q0 24.53125 5.59375 45.328125q5.609375 20.796875 18.9375 33.328125q13.34375 12.53125 35.734375 12.53125q25.609375 0 39.734375 -16.0q14.140625 -16.0 14.140625 -41.59375q0 -24.53125 -11.734375 -44.53125q-11.734375 -20.0 -30.140625 -37.859375q-18.390625 -17.875 -39.46875 -34.9375q-21.0625 -17.0625 -39.46875 -34.921875q-18.390625 -17.875 -30.125 -38.9375q-11.734375 -21.078125 -11.734375 -47.203125q0 -29.34375 15.734375 -48.53125q15.734375 -19.203125 41.59375 -28.796875q25.875 -9.609375 55.734375 -9.609375z" fill-rule="nonzero"/></g></svg>