<svg version="1.1" viewBox="0.0 0.0 720.0 720.0" fill="none" stroke="none" stroke-linecap="square" stroke-miterlimit="10" xmlns:xlink="http://www.w3.org/1999/xlink" xmlns="http://www.w3.org/2000/svg"><clipPath id="p.0"><path d="m0 0l720.0 0l0 720.0l-720.0 0l0 -720.0z" clip-rule="nonzero"/></clipPath><g clip-path="url(#p.0)"><path fill="#000000" fill-opacity="0.0" d="m0 0l720.0 0l0 720.0l-720.0 0z" fill-rule="evenodd"/><defs><radialGradient id="p.1" gradientUnits="userSpaceOnUse" gradientTransform="matrix(23.648910257448 0.0 0.0 23.648910257448 0.0 0.0)" spreadMethod="pad" cx="15.222688744679951" cy="12.34729198179596" fx="15.222688744679951" fy="12.34729198179596" r="23.648910522460938"><stop offset="0.0" stop-color="#045093"/><stop offset="0.99999994" stop-color="#6f95b6"/><stop offset="1.0" stop-color="#d9d9d9"/></radialGradient></defs><path fill="url(#p.1)" d="m0 -136.0l720.0 0l0 856.0l-720.0 0z" fill-rule="evenodd"/><path stroke="#ffffff" stroke-width="1.0" stroke-linejoin="round" stroke-linecap="butt" d="m0 -136.0l720.0 0l0 856.0l-720.0 0z" fill-rule="evenodd"/><path fill="#ffffff" d="m360.8004 200.79688q58.125 0 91.71875 38.40625q33.609375 38.40625 33.609375 108.796875q0 42.671875 -13.609375 76.546875q-13.59375 33.859375 -36.265625 58.65625q-22.65625 24.796875 -50.125 41.59375q-27.46875 16.796875 -56.0 26.65625q-28.53125 9.875 -53.59375 13.609375l-2.140625 -10.65625q23.46875 -6.9375 46.671875 -18.671875q23.203125 -11.734375 42.125 -33.875q18.9375 -22.125 30.671875 -59.984375q11.734375 -37.875 11.734375 -96.546875q0 -51.71875 -7.734375 -80.78125q-7.734375 -29.078125 -19.203125 -41.078125q-11.453125 -12.0 -23.71875 -12.0q-11.734375 0 -22.40625 10.9375q-10.671875 10.921875 -17.34375 35.46875q-6.65625 24.53125 -6.65625 65.0625q0 37.859375 6.125 61.0625q6.140625 23.203125 16.53125 33.34375q10.40625 10.125 22.671875 10.125q9.078125 0 20.265625 -5.328125q11.203125 -5.34375 20.796875 -17.609375q9.609375 -12.265625 13.875 -32.53125l4.796875 2.140625q-3.203125 25.59375 -15.734375 40.53125q-12.53125 14.921875 -30.140625 21.59375q-17.59375 6.671875 -35.1875 6.671875q-28.265625 0 -52.0 -13.859375q-23.734375 -13.875 -38.140625 -39.734375q-14.390625 -25.875 -14.390625 -62.140625q0 -41.0625 18.390625 -69.328125q18.40625 -28.265625 48.53125 -42.671875q30.140625 -14.40625 65.875 -14.40625z" fill-rule="nonzero"/></g></svg>