<svg version="1.1" viewBox="0.0 0.0 720.0 720.0" fill="none" stroke="none" stroke-linecap="square" stroke-miterlimit="10" xmlns:xlink="http://www.w3.org/1999/xlink" xmlns="http://www.w3.org/2000/svg"><clipPath id="p.0"><path d="m0 0l720.0 0l0 720.0l-720.0 0l0 -720.0z" clip-rule="nonzero"/></clipPath><g clip-path="url(#p.0)"><path fill="#000000" fill-opacity="0.0" d="m0 0l720.0 0l0 720.0l-720.0 0z" fill-rule="evenodd"/><defs><radialGradient id="p.1" gradientUnits="userSpaceOnUse" gradientTransform="matrix(22.563618502386973 0.0 0.0 22.563618502386973 0.0 0.0)" spreadMethod="pad" cx="15.954887730525849" cy="15.954887730525849" fx="15.954887730525849" fy="15.954887730525849" r="22.563617706298828"><stop offset="0.0" stop-color="#045093"/><stop offset="0.99999994" stop-color="#6f95b6"/><stop offset="1.0" stop-color="#d9d9d9"/></radialGradient></defs><path fill="url(#p.1)" d="m0 0l720.0 0l0 720.0l-720.0 0z" fill-rule="evenodd"/><path stroke="#ffffff" stroke-width="1.0" stroke-linejoin="round" stroke-linecap="butt" d="m0 0l720.0 0l0 720.0l-720.0 0z" fill-rule="evenodd"/><path fill="#ffffff" d="m198.9424 174.40625q13.859375 0.53125 36.25 1.0625q22.406235 0.53125 44.812485 0.53125q25.59375 0 49.59375 -0.53125q24.0 -0.53125 34.140625 -0.53125q66.125 0 98.921875 23.46875q32.796875 23.46875 32.796875 60.265625q0 18.671875 -11.203125 37.875q-11.1875 19.1875 -34.65625 34.125q-23.46875 14.9375 -60.796875 21.859375l0 1.078125q50.125 3.71875 79.453125 18.125q29.34375 14.40625 42.140625 34.671875q12.796875 20.265625 12.796875 42.125q0 33.609375 -17.59375 56.546875q-17.59375 22.921875 -50.671875 34.921875q-33.0625 12.0 -78.921875 12.0q-12.8125 0 -36.8125 -0.796875q-23.984375 -0.796875 -58.125 -0.796875q-23.46875 0 -45.874985 0.265625q-22.390625 0.265625 -36.25 1.328125l0 -10.671875q17.0625 -1.0625 25.59375 -4.265625q8.53125 -3.203125 11.453125 -12.796875q2.9375 -9.59375 2.9375 -28.796875l0 -264.53125q0 -19.734375 -2.9375 -29.0625q-2.921875 -9.34375 -11.71875 -12.796875q-8.796875 -3.46875 -25.328125 -4.015625l0 -10.65625zm157.85936 10.65625q-20.796875 0 -26.9375 9.078125q-6.125 9.0625 -6.125 36.796875l0 264.53125q0 18.671875 2.921875 28.265625q2.9375 9.59375 10.671875 12.796875q7.734375 3.203125 23.203125 3.203125q38.390625 0 56.25 -24.265625q17.875 -24.265625 17.875 -69.0625q0 -41.078125 -20.53125 -63.46875q-20.53125 -22.40625 -68.0 -22.40625l-45.328125 0q0 0 0 -4.53125q0 -4.53125 0 -4.53125l45.859375 0q25.078125 0 38.40625 -12.0q13.328125 -12.0 18.65625 -32.0q5.34375 -20.0 5.34375 -42.9375q0 -39.46875 -12.265625 -59.46875q-12.265625 -20.0 -40.0 -20.0z" fill-rule="nonzero"/></g></svg>