<svg version="1.1" viewBox="0.0 0.0 720.0 720.0" fill="none" stroke="none" stroke-linecap="square" stroke-miterlimit="10" xmlns:xlink="http://www.w3.org/1999/xlink" xmlns="http://www.w3.org/2000/svg"><clipPath id="p.0"><path d="m0 0l720.0 0l0 720.0l-720.0 0l0 -720.0z" clip-rule="nonzero"/></clipPath><g clip-path="url(#p.0)"><path fill="#000000" fill-opacity="0.0" d="m0 0l720.0 0l0 720.0l-720.0 0z" fill-rule="evenodd"/><defs><radialGradient id="p.1" gradientUnits="userSpaceOnUse" gradientTransform="matrix(22.563618502386973 0.0 0.0 22.563618502386973 0.0 0.0)" spreadMethod="pad" cx="15.954887730525849" cy="15.954887730525849" fx="15.954887730525849" fy="15.954887730525849" r="22.563617706298828"><stop offset="0.0" stop-color="#045093"/><stop offset="0.99999994" stop-color="#6f95b6"/><stop offset="1.0" stop-color="#d9d9d9"/></radialGradient></defs><path fill="url(#p.1)" d="m0 0l720.0 0l0 720.0l-720.0 0z" fill-rule="evenodd"/><path stroke="#ffffff" stroke-width="1.0" stroke-linejoin="round" stroke-linecap="butt" d="m0 0l720.0 0l0 720.0l-720.0 0z" fill-rule="evenodd"/><path fill="#ffffff" d="m383.73624 166.9375q35.203125 0 57.859375 10.40625q22.671875 10.390625 40.265625 24.265625q10.671875 8.0 16.265625 1.875q5.609375 -6.140625 7.734375 -29.078125l12.2655945 0q-1.0625 20.796875 -1.59375 50.40625q-0.53125 29.59375 -0.53125 78.65625l-12.2655945 0q-2.671875 -24.53125 -6.9375 -41.859375q-4.265625 -17.34375 -11.734375 -30.671875q-7.46875 -13.328125 -21.328125 -24.0q-13.34375 -13.328125 -30.9375 -19.734375q-17.59375 -6.40625 -36.796875 -6.40625q-28.796875 0 -49.0625 15.203125q-20.265625 15.203125 -32.8125 41.34375q-12.53125 26.125 -18.40625 58.921875q-5.859375 32.796875 -5.859375 68.0q0 35.734375 6.125 68.53125q6.140625 32.796875 19.203125 58.40625q13.078125 25.59375 33.875 40.53125q20.796875 14.9375 49.0625 14.9375q17.609375 0 35.46875 -6.671875q17.875 -6.671875 30.671875 -19.46875q20.796875 -16.0 28.265625 -39.734375q7.46875 -23.734375 11.203125 -63.203125l12.2655945 0q0 50.671875 0.53125 81.875q0.53125 31.203125 1.59375 52.53125l-12.2655945 0q-2.125 -22.9375 -7.203125 -28.796875q-5.0625 -5.875 -16.796875 1.59375q-19.734375 13.875 -41.875 24.28125q-22.125 10.390625 -56.78125 10.390625q-56.53125 0 -98.9375 -22.9375q-42.40625 -22.9375 -65.875 -66.125q-23.453125 -43.203125 -23.453125 -104.0q0 -59.734375 24.265625 -104.53125q24.265625 -44.8125 66.65625 -69.875q42.40625 -25.0625 97.875 -25.0625z" fill-rule="nonzero"/></g></svg>