<svg version="1.1" viewBox="0.0 0.0 720.0 720.0" fill="none" stroke="none" stroke-linecap="square" stroke-miterlimit="10" xmlns:xlink="http://www.w3.org/1999/xlink" xmlns="http://www.w3.org/2000/svg"><clipPath id="p.0"><path d="m0 0l720.0 0l0 720.0l-720.0 0l0 -720.0z" clip-rule="nonzero"/></clipPath><g clip-path="url(#p.0)"><path fill="#000000" fill-opacity="0.0" d="m0 0l720.0 0l0 720.0l-720.0 0z" fill-rule="evenodd"/><defs><radialGradient id="p.1" gradientUnits="userSpaceOnUse" gradientTransform="matrix(22.563618502386973 0.0 0.0 22.563618502386973 0.0 0.0)" spreadMethod="pad" cx="15.954887730525849" cy="15.954887730525849" fx="15.954887730525849" fy="15.954887730525849" r="22.563617706298828"><stop offset="0.0" stop-color="#045093"/><stop offset="0.99999994" stop-color="#6f95b6"/><stop offset="1.0" stop-color="#d9d9d9"/></radialGradient></defs><path fill="url(#p.1)" d="m0 0l720.0 0l0 720.0l-720.0 0z" fill-rule="evenodd"/><path stroke="#ffffff" stroke-width="1.0" stroke-linejoin="round" stroke-linecap="butt" d="m0 0l720.0 0l0 720.0l-720.0 0z" fill-rule="evenodd"/><path fill="#ffffff" d="m336.00623 174.40625q105.0625 0 156.25 47.734375q51.203125 47.734375 51.203125 136.79688q0 58.125 -25.0625 101.59375q-25.0625 43.46875 -72.796875 67.46875q-47.734375 24.0 -114.40625 24.0q-8.53125 0 -22.40625 -0.53125q-13.859375 -0.53125 -28.796875 -0.796875q-14.921875 -0.265625 -26.656265 -0.265625q-23.46875 0 -46.140625 0.265625q-22.65625 0.265625 -35.984375 1.328125l0 -10.671875q17.0625 -1.0625 25.59375 -4.265625q8.53125 -3.203125 11.453125 -12.796875q2.9375 -9.59375 2.9375 -28.796875l0 -264.53125q0 -19.734375 -2.9375 -29.0625q-2.921875 -9.34375 -11.71875 -12.796875q-8.796875 -3.46875 -25.328125 -4.015625l0 -10.65625q13.328125 0.53125 35.984375 1.328125q22.671875 0.796875 45.078125 0.265625q19.20314 -0.53125 43.468765 -1.0625q24.265625 -0.53125 40.265625 -0.53125zm-0.546875 9.59375q-24.53125 0 -32.0 9.078125q-7.453125 9.0625 -7.453125 36.796875l0 266.65625q0 27.734375 7.71875 36.8125q7.734375 9.0625 32.28125 9.0625q44.796875 0 70.65625 -21.0625q25.875 -21.078125 37.0625 -61.609375q11.203125 -40.53125 11.203125 -98.671875q0 -59.734375 -12.0 -98.921875q-12.0 -39.203125 -38.140625 -58.671875q-26.125 -19.46875 -69.328125 -19.46875z" fill-rule="nonzero"/></g></svg>