<svg version="1.1" viewBox="0.0 0.0 720.0 720.0" fill="none" stroke="none" stroke-linecap="square" stroke-miterlimit="10" xmlns:xlink="http://www.w3.org/1999/xlink" xmlns="http://www.w3.org/2000/svg"><clipPath id="p.0"><path d="m0 0l720.0 0l0 720.0l-720.0 0l0 -720.0z" clip-rule="nonzero"/></clipPath><g clip-path="url(#p.0)"><path fill="#000000" fill-opacity="0.0" d="m0 0l720.0 0l0 720.0l-720.0 0z" fill-rule="evenodd"/><defs><radialGradient id="p.1" gradientUnits="userSpaceOnUse" gradientTransform="matrix(22.563618502386973 0.0 0.0 22.563618502386973 0.0 0.0)" spreadMethod="pad" cx="15.954887730525849" cy="15.954887730525849" fx="15.954887730525849" fy="15.954887730525849" r="22.563617706298828"><stop offset="0.0" stop-color="#045093"/><stop offset="0.99999994" stop-color="#6f95b6"/><stop offset="1.0" stop-color="#d9d9d9"/></radialGradient></defs><path fill="url(#p.1)" d="m0 0l720.0 0l0 720.0l-720.0 0z" fill-rule="evenodd"/><path stroke="#ffffff" stroke-width="1.0" stroke-linejoin="round" stroke-linecap="butt" d="m0 0l720.0 0l0 720.0l-720.0 0z" fill-rule="evenodd"/><path fill="#ffffff" d="m494.40375 174.40625q-2.140625 23.46875 -2.9375 45.34375q-0.796875 21.859375 -0.796875 33.59375q0 10.65625 0.53125 20.265625q0.53125 9.59375 1.0625 16.0l-12.265625 0q-5.328125 -38.9375 -16.53125 -61.59375q-11.203125 -22.671875 -29.078125 -32.0q-17.859375 -9.34375 -41.859375 -9.34375l-21.859375 0q-15.46875 0 -23.46875 2.671875q-8.0 2.65625 -10.671875 10.65625q-2.65625 8.0 -2.65625 24.53125l0 277.32812q0 16.546875 2.65625 24.546875q2.671875 8.0 10.671875 10.671875q8.0 2.65625 23.46875 2.65625l26.125 0q24.0 0 42.390625 -10.390625q18.40625 -10.40625 31.46875 -35.46875q13.078125 -25.078125 20.015625 -67.734375l12.265625 0q-1.609375 17.0625 -1.609375 44.796875q0 12.265625 0.53125 34.671875q0.546875 22.390625 3.203125 46.390625q-27.1875 -1.0625 -61.328125 -1.328125q-34.125 -0.265625 -60.796875 -0.265625q-13.328125 0 -34.140625 0q-20.796875 0 -44.796875 0.265625q-24.0 0.265625 -48.53125 0.53125q-24.53125 0.265625 -46.390625 0.796875l0 -10.671875q17.0625 -1.0625 25.59375 -4.265625q8.53125 -3.203125 11.453125 -12.796875q2.9375 -9.59375 2.9375 -28.796875l0 -264.53125q0 -19.734375 -2.9375 -29.0625q-2.921875 -9.34375 -11.71875 -12.796875q-8.796875 -3.46875 -25.328125 -4.015625l0 -10.65625q21.859375 0.53125 46.390625 0.796875q24.53125 0.265625 48.53125 0.53125q24.0 0.265625 44.796875 0.265625q20.8125 0 34.140625 0q24.53125 0 55.734375 -0.265625q31.203125 -0.265625 55.734375 -1.328125zm-83.203125 182.39062q0 0 0 5.34375q0 5.328125 0 5.328125l-93.328125 0q0 0 0 -5.328125q0 -5.34375 0 -5.34375l93.328125 0zm15.46875 -70.390625q-2.140625 30.390625 -1.875 46.390625q0.265625 16.0 0.265625 29.34375q0 13.328125 0.53125 29.328125q0.546875 16.0 2.671875 46.40625l-12.265625 0q-2.671875 -18.671875 -9.875 -34.671875q-7.1875 -16.0 -20.53125 -25.859375q-13.328125 -9.875 -34.65625 -9.875l0 -10.671875q16.0 0 27.1875 -6.65625q11.203125 -6.671875 18.40625 -17.59375q7.203125 -10.9375 11.46875 -23.203125q4.265625 -12.28125 6.40625 -22.9375l12.265625 0z" fill-rule="nonzero"/></g></svg>