<svg version="1.1" viewBox="0.0 0.0 720.0 720.0" fill="none" stroke="none" stroke-linecap="square" stroke-miterlimit="10" xmlns:xlink="http://www.w3.org/1999/xlink" xmlns="http://www.w3.org/2000/svg"><clipPath id="p.0"><path d="m0 0l720.0 0l0 720.0l-720.0 0l0 -720.0z" clip-rule="nonzero"/></clipPath><g clip-path="url(#p.0)"><path fill="#000000" fill-opacity="0.0" d="m0 0l720.0 0l0 720.0l-720.0 0z" fill-rule="evenodd"/><defs><radialGradient id="p.1" gradientUnits="userSpaceOnUse" gradientTransform="matrix(22.563618502386973 0.0 0.0 22.563618502386973 0.0 0.0)" spreadMethod="pad" cx="15.954887730525849" cy="15.954887730525849" fx="15.954887730525849" fy="15.954887730525849" r="22.563617706298828"><stop offset="0.0" stop-color="#045093"/><stop offset="0.99999994" stop-color="#6f95b6"/><stop offset="1.0" stop-color="#d9d9d9"/></radialGradient></defs><path fill="url(#p.1)" d="m0 0l720.0 0l0 720.0l-720.0 0z" fill-rule="evenodd"/><path stroke="#ffffff" stroke-width="1.0" stroke-linejoin="round" stroke-linecap="butt" d="m0 0l720.0 0l0 720.0l-720.0 0z" fill-rule="evenodd"/><path fill="#ffffff" d="m505.60364 174.40625q-2.140625 24.0 -2.9375 46.40625q-0.796875 22.390625 -0.796875 34.65625q0 11.734375 0.53125 22.40625q0.53125 10.65625 1.0625 18.125l-12.265625 0q-6.9375 -41.59375 -19.203125 -65.328125q-12.265625 -23.734375 -30.140625 -33.859375q-17.859375 -10.140625 -42.390625 -10.140625l-17.59375 0q-15.46875 0 -23.46875 2.671875q-8.0 2.65625 -10.671875 10.65625q-2.65625 8.0 -2.65625 24.53125l0 267.73438q0 20.796875 4.265625 30.9375q4.265625 10.125 16.53125 13.328125q12.265625 3.203125 36.265625 3.734375l0 11.734375q-16.53125 -0.53125 -42.671875 -1.0625q-26.125 -0.53125 -54.921875 -0.53125q-22.9375 0 -44.8125 0.53125q-21.859375 0.53125 -39.453125 1.0625l0 -10.671875q17.0625 -1.0625 25.59375 -4.265625q8.53125 -3.203125 11.453125 -12.796875q2.9375 -9.59375 2.9375 -28.796875l0 -264.53125q0 -19.734375 -2.9375 -29.0625q-2.921875 -9.34375 -11.71875 -12.796875q-8.796875 -3.46875 -25.328125 -4.015625l0 -10.65625q21.859375 0.53125 46.390625 0.796875q24.53125 0.265625 48.53125 0.53125q24.0 0.265625 44.796875 0.265625q20.8125 0 34.140625 0q24.53125 0 55.734375 -0.265625q31.203125 -0.265625 55.734375 -1.328125zm-79.46875 184.53125q0 0 0 5.34375q0 5.328125 0 5.328125l-97.0625 0q0 0 0 -5.328125q0 -5.34375 0 -5.34375l97.0625 0zm13.328125 -70.40625q-2.125 30.40625 -1.859375 46.40625q0.265625 16.0 0.265625 29.328125q0 13.34375 0.53125 29.34375q0.53125 15.984375 2.671875 46.390625l-12.265625 0q-3.203125 -18.671875 -10.140625 -34.671875q-6.9375 -16.0 -20.265625 -25.859375q-13.328125 -9.859375 -34.671875 -9.859375l0 -10.671875q16.0 0 26.9375 -6.65625q10.9375 -6.671875 18.390625 -17.609375q7.46875 -10.9375 11.734375 -23.203125q4.28125 -12.265625 6.40625 -22.9375l12.265625 0z" fill-rule="nonzero"/></g></svg>