<svg version="1.1" viewBox="0.0 0.0 720.0 720.0" fill="none" stroke="none" stroke-linecap="square" stroke-miterlimit="10" xmlns:xlink="http://www.w3.org/1999/xlink" xmlns="http://www.w3.org/2000/svg"><clipPath id="p.0"><path d="m0 0l720.0 0l0 720.0l-720.0 0l0 -720.0z" clip-rule="nonzero"/></clipPath><g clip-path="url(#p.0)"><path fill="#000000" fill-opacity="0.0" d="m0 0l720.0 0l0 720.0l-720.0 0z" fill-rule="evenodd"/><defs><radialGradient id="p.1" gradientUnits="userSpaceOnUse" gradientTransform="matrix(22.563618502386973 0.0 0.0 22.563618502386973 0.0 0.0)" spreadMethod="pad" cx="15.954887730525849" cy="15.954887730525849" fx="15.954887730525849" fy="15.954887730525849" r="22.563617706298828"><stop offset="0.0" stop-color="#045093"/><stop offset="0.99999994" stop-color="#6f95b6"/><stop offset="1.0" stop-color="#d9d9d9"/></radialGradient></defs><path fill="url(#p.1)" d="m0 0l720.0 0l0 720.0l-720.0 0z" fill-rule="evenodd"/><path stroke="#ffffff" stroke-width="1.0" stroke-linejoin="round" stroke-linecap="butt" d="m0 0l720.0 0l0 720.0l-720.0 0z" fill-rule="evenodd"/><path fill="#ffffff" d="m380.00195 166.9375q36.265625 0 59.1875 10.140625q22.9375 10.125 41.078125 24.53125q6.390625 4.796875 10.671875 4.796875q10.125 0 13.328125 -32.0l12.265625 0q-1.0625 20.796875 -1.609375 50.40625q-0.53125 29.59375 -0.53125 78.65625l-12.265625 0q-3.734375 -32.0 -11.46875 -55.734375q-7.71875 -23.734375 -28.53125 -40.796875q-12.796875 -12.265625 -31.734375 -19.203125q-18.921875 -6.9375 -38.125 -6.9375q-29.328125 0 -50.140625 15.203125q-20.796875 15.203125 -34.125 41.34375q-13.328125 26.125 -19.734375 58.921875q-6.40625 32.796875 -6.40625 68.0q0 96.0 26.40625 140.26562q26.40625 44.265625 76.0 44.265625q12.796875 0 22.390625 -3.1875q9.609375 -3.203125 15.46875 -7.46875q7.46875 -5.34375 10.140625 -11.46875q2.671875 -6.140625 2.671875 -16.265625l0 -52.265625q0 -24.546875 -4.0 -36.546875q-4.0 -12.0 -15.734375 -16.265625q-11.734375 -4.265625 -34.140625 -4.796875l0 -10.65625q11.203125 0.53125 26.9375 0.796875q15.734375 0.265625 32.796875 0.53125q17.0625 0.265625 31.46875 0.265625q22.390625 0 41.0625 -0.53125q18.671875 -0.53125 30.40625 -1.0625l0 10.65625q-10.140625 0.53125 -15.203125 3.734375q-5.0625 3.203125 -6.9375 12.8125q-1.859375 9.59375 -1.859375 29.328125l0 105.59375l-10.671875 0q-0.53125 -9.0625 -4.0 -19.734375q-3.46875 -10.671875 -11.46875 -10.671875q-3.734375 0 -9.875 1.875q-6.125 1.859375 -18.921875 9.328125q-19.734375 11.203125 -41.609375 18.9375q-21.859375 7.734375 -45.859375 7.734375q-61.859375 0 -104.53125 -22.9375q-42.67189 -22.9375 -64.26564 -65.859375q-21.59375 -42.9375 -21.59375 -103.203125q0 -60.796875 24.796875 -105.59375q24.796875 -44.8125 68.26564 -69.875q43.46875 -25.0625 100.0 -25.0625z" fill-rule="nonzero"/></g></svg>