<svg version="1.1" viewBox="0.0 0.0 720.0 720.0" fill="none" stroke="none" stroke-linecap="square" stroke-miterlimit="10" xmlns:xlink="http://www.w3.org/1999/xlink" xmlns="http://www.w3.org/2000/svg"><clipPath id="p.0"><path d="m0 0l720.0 0l0 720.0l-720.0 0l0 -720.0z" clip-rule="nonzero"/></clipPath><g clip-path="url(#p.0)"><path fill="#000000" fill-opacity="0.0" d="m0 0l720.0 0l0 720.0l-720.0 0z" fill-rule="evenodd"/><defs><radialGradient id="p.1" gradientUnits="userSpaceOnUse" gradientTransform="matrix(22.563618502386973 0.0 0.0 22.563618502386973 0.0 0.0)" spreadMethod="pad" cx="15.954887730525849" cy="15.954887730525849" fx="15.954887730525849" fy="15.954887730525849" r="22.563617706298828"><stop offset="0.0" stop-color="#045093"/><stop offset="0.99999994" stop-color="#6f95b6"/><stop offset="1.0" stop-color="#d9d9d9"/></radialGradient></defs><path fill="url(#p.1)" d="m0 0l720.0 0l0 720.0l-720.0 0z" fill-rule="evenodd"/><path stroke="#ffffff" stroke-width="1.0" stroke-linejoin="round" stroke-linecap="butt" d="m0 0l720.0 0l0 720.0l-720.0 0z" fill-rule="evenodd"/><path fill="#ffffff" d="m250.66867 652.2656l0 -10.671875q21.328125 -2.125 36.265625 -12.53125q14.9375 -10.390625 22.9375 -35.46875q8.0 -25.0625 8.0 -70.390625l0 -292.26562q0 -19.734375 -2.9375 -29.0625q-2.9375 -9.34375 -11.46875 -12.796875q-8.53125 -3.46875 -25.59375 -4.015625l0 -10.65625q13.328125 0.53125 34.921875 1.0625q21.609375 0.53125 45.609375 0.53125q24.0 0 46.65625 -0.53125q22.671875 -0.53125 37.609375 -1.0625l0 10.65625q-16.53125 0.546875 -25.34375 4.015625q-8.796875 3.453125 -11.734375 12.796875q-2.921875 9.328125 -2.921875 29.0625l0 195.20312q0 21.859375 0 47.203125q0 25.328125 -1.875 49.328125q-1.859375 24.0 -7.1875 42.65625q-10.671875 36.8125 -46.140625 61.875q-35.46875 25.0625 -96.796875 25.0625z" fill-rule="nonzero"/></g></svg>