<svg version="1.1" viewBox="0.0 0.0 720.0 720.0" fill="none" stroke="none" stroke-linecap="square" stroke-miterlimit="10" xmlns:xlink="http://www.w3.org/1999/xlink" xmlns="http://www.w3.org/2000/svg"><clipPath id="p.0"><path d="m0 0l720.0 0l0 720.0l-720.0 0l0 -720.0z" clip-rule="nonzero"/></clipPath><g clip-path="url(#p.0)"><path fill="#000000" fill-opacity="0.0" d="m0 0l720.0 0l0 720.0l-720.0 0z" fill-rule="evenodd"/><defs><radialGradient id="p.1" gradientUnits="userSpaceOnUse" gradientTransform="matrix(22.563618502386973 0.0 0.0 22.563618502386973 0.0 0.0)" spreadMethod="pad" cx="15.954887730525849" cy="15.954887730525849" fx="15.954887730525849" fy="15.954887730525849" r="22.563617706298828"><stop offset="0.0" stop-color="#045093"/><stop offset="0.99999994" stop-color="#6f95b6"/><stop offset="1.0" stop-color="#d9d9d9"/></radialGradient></defs><path fill="url(#p.1)" d="m0 0l720.0 0l0 720.0l-720.0 0z" fill-rule="evenodd"/><path stroke="#ffffff" stroke-width="1.0" stroke-linejoin="round" stroke-linecap="butt" d="m0 0l720.0 0l0 720.0l-720.0 0z" fill-rule="evenodd"/><path fill="#ffffff" d="m537.0623 174.40625l0 10.65625q-17.0625 2.140625 -25.59375 8.8125q-8.53125 6.65625 -11.46875 21.0625q-2.9375 14.40625 -2.9375 40.53125l0 297.59375q-6.390625 -0.53125 -13.0625 -0.53125q-6.671875 0 -14.140625 0.53125l-231.45312 -293.32812l0 204.79688q0 29.34375 3.1875 45.078125q3.203125 15.71875 14.140625 22.390625q10.9375 6.671875 34.40625 9.328125l0 10.671875q-10.140625 -1.0625 -26.671875 -1.328125q-16.53125 -0.265625 -30.9375 -0.265625q-12.265625 0 -25.0625 0.265625q-12.796875 0.265625 -21.328125 1.328125l0 -10.671875q17.0625 -2.65625 25.59375 -9.0625q8.53125 -6.40625 11.46875 -21.0625q2.9375 -14.671875 2.9375 -40.265625l0 -240.0q0 -19.734375 -2.9375 -29.0625q-2.9375 -9.34375 -11.734375 -12.796875q-8.796875 -3.46875 -25.328125 -4.015625l0 -10.65625q8.53125 0.53125 21.328125 1.0625q12.796875 0.53125 25.0625 0.53125q12.796875 0 24.53125 -0.53125q11.734375 -0.53125 21.34375 -1.0625l206.39062 254.39062l0 -166.92188q0 -29.34375 -3.203125 -45.078125q-3.1875 -15.734375 -14.125 -22.65625q-10.9375 -6.9375 -34.40625 -9.078125l0 -10.65625q10.140625 0.53125 26.671875 1.0625q16.53125 0.53125 30.9375 0.53125q12.796875 0 25.328125 -0.53125q12.53125 -0.53125 21.0625 -1.0625z" fill-rule="nonzero"/></g></svg>