<svg version="1.1" viewBox="0.0 0.0 720.0 720.0" fill="none" stroke="none" stroke-linecap="square" stroke-miterlimit="10" xmlns:xlink="http://www.w3.org/1999/xlink" xmlns="http://www.w3.org/2000/svg"><clipPath id="p.0"><path d="m0 0l720.0 0l0 720.0l-720.0 0l0 -720.0z" clip-rule="nonzero"/></clipPath><g clip-path="url(#p.0)"><path fill="#000000" fill-opacity="0.0" d="m0 0l720.0 0l0 720.0l-720.0 0z" fill-rule="evenodd"/><defs><radialGradient id="p.1" gradientUnits="userSpaceOnUse" gradientTransform="matrix(22.563618502386973 0.0 0.0 22.563618502386973 0.0 0.0)" spreadMethod="pad" cx="15.954887730525849" cy="15.954887730525849" fx="15.954887730525849" fy="15.954887730525849" r="22.563617706298828"><stop offset="0.0" stop-color="#045093"/><stop offset="0.99999994" stop-color="#6f95b6"/><stop offset="1.0" stop-color="#d9d9d9"/></radialGradient></defs><path fill="url(#p.1)" d="m0 0l720.0 0l0 720.0l-720.0 0z" fill-rule="evenodd"/><path stroke="#ffffff" stroke-width="1.0" stroke-linejoin="round" stroke-linecap="butt" d="m0 0l720.0 0l0 720.0l-720.0 0z" fill-rule="evenodd"/><path fill="#ffffff" d="m360.2698 166.9375q56.53125 0 98.921875 22.9375q42.40625 22.921875 65.87497 65.859375q23.46875 42.9375 23.46875 104.265625q0 59.734375 -24.0 104.53125q-23.99997 44.796875 -66.93747 69.875q-42.9375 25.0625 -97.859375 25.0625q-56.53125 0 -98.9375 -22.9375q-42.40625 -22.9375 -65.875 -66.125q-23.453125 -43.203125 -23.453125 -104.0q0 -59.734375 24.265625 -104.53125q24.265625 -44.8125 66.65625 -69.875q42.40625 -25.0625 97.875 -25.0625zm-2.140625 9.59375q-29.859375 0 -52.0 24.0q-22.125 24.0 -34.125 66.140625q-12.0 42.125 -12.0 97.59375q0 56.53125 13.59375 98.40625q13.609375 41.859375 36.796875 64.53125q23.203125 22.65625 51.46875 22.65625q29.875 0 52.0 -24.0q22.140625 -24.0 34.140625 -66.390625q12.0 -42.40625 12.0 -97.328125q0 -57.078125 -13.609375 -98.671875q-13.59375 -41.59375 -36.796875 -64.265625q-23.203125 -22.671875 -51.46875 -22.671875z" fill-rule="nonzero"/></g></svg>