<svg version="1.1" viewBox="0.0 0.0 720.0 720.0" fill="none" stroke="none" stroke-linecap="square" stroke-miterlimit="10" xmlns:xlink="http://www.w3.org/1999/xlink" xmlns="http://www.w3.org/2000/svg"><clipPath id="p.0"><path d="m0 0l720.0 0l0 720.0l-720.0 0l0 -720.0z" clip-rule="nonzero"/></clipPath><g clip-path="url(#p.0)"><path fill="#000000" fill-opacity="0.0" d="m0 0l720.0 0l0 720.0l-720.0 0z" fill-rule="evenodd"/><defs><radialGradient id="p.1" gradientUnits="userSpaceOnUse" gradientTransform="matrix(22.563618502386973 0.0 0.0 22.563618502386973 0.0 0.0)" spreadMethod="pad" cx="15.954887730525849" cy="15.954887730525849" fx="15.954887730525849" fy="15.954887730525849" r="22.563617706298828"><stop offset="0.0" stop-color="#045093"/><stop offset="0.99999994" stop-color="#6f95b6"/><stop offset="1.0" stop-color="#d9d9d9"/></radialGradient></defs><path fill="url(#p.1)" d="m0 0l720.0 0l0 720.0l-720.0 0z" fill-rule="evenodd"/><path stroke="#ffffff" stroke-width="1.0" stroke-linejoin="round" stroke-linecap="butt" d="m0 0l720.0 0l0 720.0l-720.0 0z" fill-rule="evenodd"/><path fill="#ffffff" d="m556.00415 545.59375l9.59375 2.671875q-4.265625 29.328125 -13.34375 50.390625q-9.0625 21.078125 -23.453125 32.8125q-11.203125 9.0625 -29.078094 14.921875q-17.859375 5.875 -39.71875 5.875q-29.34375 0 -57.34375 -9.078125q-28.0 -9.0625 -56.796875 -22.125q-28.796875 -13.0625 -60.796875 -25.328125q-3.734375 -1.0625 -7.203125 -2.40625q-3.46875 -1.328125 -5.59375 -1.328125q-10.140625 4.796875 -22.140625 8.0q-12.0 3.203125 -22.65625 3.203125q-10.671875 0 -17.875 -3.203125q-7.203125 -3.203125 -7.203125 -10.671875q0 -14.390625 29.34375 -14.390625q18.65625 0 40.53125 7.46875q19.734375 -5.34375 33.859375 -12.015625q14.140625 -6.65625 29.328125 -12.53125q15.203125 -5.859375 37.078125 -7.453125l0.53125 8.53125q-17.0625 1.59375 -29.0625 6.125q-12.0 4.53125 -24.265625 9.859375q-12.265625 5.34375 -28.796875 10.140625q37.859375 2.671875 70.390625 5.59375q32.53125 2.9375 60.265625 3.734375q27.734375 0.8125 50.140625 -2.390625q33.0625 -3.734375 52.24997 -14.40625q19.203125 -10.65625 32.015625 -32.0zm-195.73434 -378.65625q56.53125 0 98.921875 22.9375q42.40625 22.921875 65.87497 65.859375q23.46875 42.9375 23.46875 104.265625q0 59.734375 -24.0 104.53125q-23.99997 44.796875 -66.93747 69.875q-42.9375 25.0625 -97.859375 25.0625q-56.53125 0 -98.9375 -22.9375q-42.40625 -22.9375 -65.875 -66.125q-23.453125 -43.203125 -23.453125 -104.0q0 -59.734375 24.265625 -104.53125q24.265625 -44.8125 66.65625 -69.875q42.40625 -25.0625 97.875 -25.0625zm-2.140625 9.59375q-29.859375 0 -52.0 24.0q-22.125 24.0 -34.125 66.140625q-12.0 42.125 -12.0 97.59375q0 56.53125 13.59375 98.40625q13.609375 41.859375 36.796875 64.53125q23.203125 22.65625 51.46875 22.65625q29.875 0 52.0 -24.0q22.140625 -24.0 34.140625 -66.390625q12.0 -42.40625 12.0 -97.328125q0 -57.078125 -13.609375 -98.671875q-13.59375 -41.59375 -36.796875 -64.265625q-23.203125 -22.671875 -51.46875 -22.671875z" fill-rule="nonzero"/></g></svg>