<svg version="1.1" viewBox="0.0 0.0 720.0 720.0" fill="none" stroke="none" stroke-linecap="square" stroke-miterlimit="10" xmlns:xlink="http://www.w3.org/1999/xlink" xmlns="http://www.w3.org/2000/svg"><clipPath id="p.0"><path d="m0 0l720.0 0l0 720.0l-720.0 0l0 -720.0z" clip-rule="nonzero"/></clipPath><g clip-path="url(#p.0)"><path fill="#000000" fill-opacity="0.0" d="m0 0l720.0 0l0 720.0l-720.0 0z" fill-rule="evenodd"/><defs><radialGradient id="p.1" gradientUnits="userSpaceOnUse" gradientTransform="matrix(22.563618502386973 0.0 0.0 22.563618502386973 0.0 0.0)" spreadMethod="pad" cx="15.954887730525849" cy="15.954887730525849" fx="15.954887730525849" fy="15.954887730525849" r="22.563617706298828"><stop offset="0.0" stop-color="#045093"/><stop offset="0.99999994" stop-color="#6f95b6"/><stop offset="1.0" stop-color="#d9d9d9"/></radialGradient></defs><path fill="url(#p.1)" d="m0 0l720.0 0l0 720.0l-720.0 0z" fill-rule="evenodd"/><path stroke="#ffffff" stroke-width="1.0" stroke-linejoin="round" stroke-linecap="butt" d="m0 0l720.0 0l0 720.0l-720.0 0z" fill-rule="evenodd"/><path fill="#ffffff" d="m193.60912 174.40625q13.328125 0.53125 35.984375 1.0625q22.671875 0.53125 45.07814 0.53125q25.59375 0 49.59375 -0.53125q24.0 -0.53125 34.140625 -0.53125q49.59375 0 82.390625 10.9375q32.796875 10.921875 49.0625 31.734375q16.265625 20.796875 16.265625 50.125q0 18.140625 -7.46875 36.546875q-7.453125 18.390625 -25.328125 34.125q-17.859375 15.734375 -48.796875 25.0625q-30.9375 9.328125 -77.859375 9.328125l-51.203125 0l0 -10.65625l45.859375 0q31.46875 0 47.734375 -12.0q16.265625 -12.0 22.390625 -32.0q6.140625 -20.0 6.140625 -44.53125q0 -42.140625 -14.9375 -65.34375q-14.921875 -23.203125 -51.1875 -23.203125q-20.796875 0 -26.9375 9.078125q-6.125 9.0625 -6.125 36.796875l0 264.53125q0 19.203125 2.921875 28.796875q2.9375 9.59375 11.46875 12.796875q8.53125 3.203125 25.609375 4.265625l0 10.671875q-14.40625 -1.0625 -36.28125 -1.328125q-21.859375 -0.265625 -44.25 -0.265625q-25.60939 0 -48.281265 0.265625q-22.65625 0.265625 -35.984375 1.328125l0 -10.671875q17.0625 -1.0625 25.59375 -4.265625q8.53125 -3.203125 11.453125 -12.796875q2.9375 -9.59375 2.9375 -28.796875l0 -264.53125q0 -19.734375 -2.9375 -29.0625q-2.921875 -9.34375 -11.71875 -12.796875q-8.796875 -3.46875 -25.328125 -4.015625l0 -10.65625zm100.79689 189.32812q22.921875 0.53125 39.71875 2.140625q16.8125 1.59375 29.609375 2.9375q12.796875 1.328125 22.9375 1.859375q48.53125 4.265625 71.71875 20.796875q23.203125 16.53125 30.140625 49.59375l12.265625 54.9375q4.796875 21.328125 10.125 29.875q5.34375 8.53125 15.484375 8.53125q6.921875 -0.546875 11.453125 -3.46875q4.546875 -2.9375 9.875 -8.796875l7.46875 6.390625q-14.40625 16.53125 -30.9375 23.734375q-16.53125 7.203125 -40.0 7.203125q-28.796875 0 -47.46875 -12.265625q-18.65625 -12.265625 -24.53125 -45.34375l-9.59375 -53.328125q-3.734375 -22.390625 -9.078125 -39.1875q-5.328125 -16.8125 -14.671875 -26.671875q-9.328125 -9.875 -25.859375 -9.875l-57.59375 0l-1.0625 -9.0625z" fill-rule="nonzero"/></g></svg>