<svg version="1.1" viewBox="0.0 0.0 720.0 720.0" fill="none" stroke="none" stroke-linecap="square" stroke-miterlimit="10" xmlns:xlink="http://www.w3.org/1999/xlink" xmlns="http://www.w3.org/2000/svg"><clipPath id="p.0"><path d="m0 0l720.0 0l0 720.0l-720.0 0l0 -720.0z" clip-rule="nonzero"/></clipPath><g clip-path="url(#p.0)"><path fill="#000000" fill-opacity="0.0" d="m0 0l720.0 0l0 720.0l-720.0 0z" fill-rule="evenodd"/><defs><radialGradient id="p.1" gradientUnits="userSpaceOnUse" gradientTransform="matrix(22.563618502386973 0.0 0.0 22.563618502386973 0.0 0.0)" spreadMethod="pad" cx="15.954887730525849" cy="15.954887730525849" fx="15.954887730525849" fy="15.954887730525849" r="22.563617706298828"><stop offset="0.0" stop-color="#045093"/><stop offset="0.99999994" stop-color="#6f95b6"/><stop offset="1.0" stop-color="#d9d9d9"/></radialGradient></defs><path fill="url(#p.1)" d="m0 0l720.0 0l0 720.0l-720.0 0z" fill-rule="evenodd"/><path stroke="#ffffff" stroke-width="1.0" stroke-linejoin="round" stroke-linecap="butt" d="m0 0l720.0 0l0 720.0l-720.0 0z" fill-rule="evenodd"/><path fill="#ffffff" d="m534.12787 174.40625l0 10.65625q-17.0625 2.140625 -25.859375 8.8125q-8.796875 6.65625 -11.46875 21.0625q-2.671875 14.40625 -2.671875 40.53125l0 141.32812q0 34.671875 -4.796875 63.46875q-4.796875 28.796875 -17.0625 49.59375q-13.875 22.9375 -40.546875 36.28125q-26.65625 13.328125 -67.71875 13.328125q-24.53125 0 -50.140625 -5.609375q-25.59375 -5.59375 -45.859375 -21.0625q-17.0625 -14.390625 -26.140625 -32.515625q-9.0625 -18.140625 -12.265625 -42.9375q-3.1875 -24.8125 -3.1875 -58.9375l0 -167.46875q0 -19.734375 -2.9375 -29.0625q-2.9375 -9.34375 -11.46875 -12.796875q-8.53125 -3.46875 -25.59375 -4.015625l0 -10.65625q13.328125 0.53125 35.984375 1.0625q22.671875 0.53125 47.203125 0.53125q24.53125 0 47.203125 -0.53125q22.671875 -0.53125 37.59375 -1.0625l0 10.65625q-18.125 0.546875 -27.46875 4.015625q-9.328125 3.453125 -12.53125 12.796875q-3.1875 9.328125 -3.1875 29.0625l0 201.0625q0 26.671875 3.453125 47.203125q3.46875 20.53125 11.734375 34.140625q8.265625 13.59375 22.671875 20.53125q14.40625 6.921875 35.734375 6.921875q37.328125 0 58.390625 -17.59375q21.078125 -17.609375 29.875 -48.796875q8.796875 -31.203125 8.796875 -71.734375l0 -140.79688q0 -29.34375 -3.734375 -45.078125q-3.734375 -15.734375 -14.671875 -22.65625q-10.921875 -6.9375 -33.328125 -9.078125l0 -10.65625q10.140625 0.53125 26.671875 1.0625q16.53125 0.53125 30.9375 0.53125q12.796875 0 25.328125 -0.53125q12.53125 -0.53125 21.0625 -1.0625z" fill-rule="nonzero"/></g></svg>