<svg version="1.1" viewBox="0.0 0.0 720.0 720.0" fill="none" stroke="none" stroke-linecap="square" stroke-miterlimit="10" xmlns:xlink="http://www.w3.org/1999/xlink" xmlns="http://www.w3.org/2000/svg"><clipPath id="p.0"><path d="m0 0l720.0 0l0 720.0l-720.0 0l0 -720.0z" clip-rule="nonzero"/></clipPath><g clip-path="url(#p.0)"><path fill="#000000" fill-opacity="0.0" d="m0 0l720.0 0l0 720.0l-720.0 0z" fill-rule="evenodd"/><defs><radialGradient id="p.1" gradientUnits="userSpaceOnUse" gradientTransform="matrix(22.563618502386973 0.0 0.0 22.563618502386973 0.0 0.0)" spreadMethod="pad" cx="15.954887730525849" cy="15.954887730525849" fx="15.954887730525849" fy="15.954887730525849" r="22.563617706298828"><stop offset="0.0" stop-color="#045093"/><stop offset="0.99999994" stop-color="#6f95b6"/><stop offset="1.0" stop-color="#d9d9d9"/></radialGradient></defs><path fill="url(#p.1)" d="m0 0l720.0 0l0 720.0l-720.0 0z" fill-rule="evenodd"/><path stroke="#ffffff" stroke-width="1.0" stroke-linejoin="round" stroke-linecap="butt" d="m0 0l720.0 0l0 720.0l-720.0 0z" fill-rule="evenodd"/><path fill="#ffffff" d="m496.53076 174.40625l0 10.65625l-182.39062 354.67188l55.453125 0q18.140625 0 36.53125 -5.859375q18.40625 -5.875 34.140625 -19.203125q15.734375 -13.34375 26.9375 -35.46875q11.203125 -22.140625 14.921875 -55.203125l12.28125 0q-1.609375 18.140625 -1.609375 46.9375q0 12.265625 0.53125 34.671875q0.53125 22.390625 3.203125 46.390625q-19.734375 -1.0625 -43.203125 -1.328125q-23.46875 -0.265625 -46.671875 -0.265625q-23.1875 0 -42.921875 0q-34.671875 0 -72.546875 0.265625q-37.859375 0.265625 -70.921875 1.328125l0 -10.671875l182.9375 -354.65625l-57.609375 0q-20.265625 0 -37.59375 5.34375q-17.328125 5.328125 -31.734375 17.859375q-14.390625 12.53125 -24.0 33.59375q-9.59375 21.0625 -13.328125 52.53125l-12.265625 0q1.0625 -7.46875 1.328125 -18.125q0.265625 -10.671875 0.265625 -22.40625q0 -12.265625 -0.796875 -34.65625q-0.796875 -22.40625 -2.9375 -46.40625q17.609375 0.53125 38.9375 1.0625q21.328125 0.53125 42.390625 0.53125q21.078125 0 38.671875 0q35.734375 0 76.265625 -0.265625q40.53125 -0.265625 75.734375 -1.328125z" fill-rule="nonzero"/></g></svg>