<svg version="1.1" viewBox="0.0 0.0 720.0 720.0" fill="none" stroke="none" stroke-linecap="square" stroke-miterlimit="10" xmlns:xlink="http://www.w3.org/1999/xlink" xmlns="http://www.w3.org/2000/svg"><clipPath id="p.0"><path d="m0 0l720.0 0l0 720.0l-720.0 0l0 -720.0z" clip-rule="nonzero"/></clipPath><g clip-path="url(#p.0)"><path fill="#000000" fill-opacity="0.0" d="m0 0l720.0 0l0 720.0l-720.0 0z" fill-rule="evenodd"/><defs><radialGradient id="p.1" gradientUnits="userSpaceOnUse" gradientTransform="matrix(22.563618502386973 0.0 0.0 22.563618502386973 0.0 0.0)" spreadMethod="pad" cx="15.954887730525849" cy="15.954887730525849" fx="15.954887730525849" fy="15.954887730525849" r="22.563617706298828"><stop offset="0.0" stop-color="#045093"/><stop offset="0.99999994" stop-color="#6f95b6"/><stop offset="1.0" stop-color="#d9d9d9"/></radialGradient></defs><path fill="url(#p.1)" d="m0 0l720.0 0l0 720.0l-720.0 0z" fill-rule="evenodd"/><path stroke="#ffffff" stroke-width="1.0" stroke-linejoin="round" stroke-linecap="butt" d="m0 0l720.0 0l0 720.0l-720.0 0z" fill-rule="evenodd"/><path fill="#ffffff" d="m378.40073 173.34375l129.59375 333.85938q7.4687805 19.203125 16.796906 26.40625q9.34375 7.1875 16.8125 7.71875l0 10.671875q-16.0 -1.0625 -37.609406 -1.328125q-21.59375 -0.265625 -43.46875 -0.265625q-24.53125 0 -46.40625 0.265625q-21.859375 0.265625 -34.65625 1.328125l0 -10.671875q27.203125 -1.0625 34.40625 -9.328125q7.203125 -8.265625 -3.46875 -35.46875l-90.671875 -248.0l9.609375 -13.859375l-81.078125 211.20312q-11.71875 29.328125 -14.125 48.0q-2.40625 18.65625 2.65625 28.796875q5.078125 10.125 16.546875 14.125q11.46875 4.0 27.46875 4.53125l0 10.671875q-17.609375 -1.0625 -33.609375 -1.328125q-16.0 -0.265625 -32.53125 -0.265625q-11.734375 0 -22.140625 0.265625q-10.390625 0.265625 -18.390625 1.328125l0 -10.671875q11.203125 -2.125 22.9375 -14.390625q11.734375 -12.265625 22.921875 -41.609375l121.609375 -311.98438q8.53125 0.53125 18.390625 0.53125q9.875 0 18.40625 -0.53125zm37.328125 225.0625l0 10.65625l-158.92188 0l5.328125 -10.65625l153.59375 0z" fill-rule="nonzero"/></g></svg>