<svg version="1.1" viewBox="0.0 0.0 720.0 720.0" fill="none" stroke="none" stroke-linecap="square" stroke-miterlimit="10" xmlns:xlink="http://www.w3.org/1999/xlink" xmlns="http://www.w3.org/2000/svg"><clipPath id="p.0"><path d="m0 0l720.0 0l0 720.0l-720.0 0l0 -720.0z" clip-rule="nonzero"/></clipPath><g clip-path="url(#p.0)"><path fill="#000000" fill-opacity="0.0" d="m0 0l720.0 0l0 720.0l-720.0 0z" fill-rule="evenodd"/><defs><radialGradient id="p.1" gradientUnits="userSpaceOnUse" gradientTransform="matrix(22.563618502386973 0.0 0.0 22.563618502386973 0.0 0.0)" spreadMethod="pad" cx="15.954887730525849" cy="15.954887730525849" fx="15.954887730525849" fy="15.954887730525849" r="22.563617706298828"><stop offset="0.0" stop-color="#045093"/><stop offset="0.99999994" stop-color="#6f95b6"/><stop offset="1.0" stop-color="#d9d9d9"/></radialGradient></defs><path fill="url(#p.1)" d="m0 0l720.0 0l0 720.0l-720.0 0z" fill-rule="evenodd"/><path stroke="#ffffff" stroke-width="1.0" stroke-linejoin="round" stroke-linecap="butt" d="m0 0l720.0 0l0 720.0l-720.0 0z" fill-rule="evenodd"/><path fill="#ffffff" d="m442.6718 174.40625l0 10.65625q-17.078125 0.546875 -25.875 4.015625q-8.796875 3.453125 -11.46875 12.796875q-2.65625 9.328125 -2.65625 29.0625l0 264.53125q0 19.203125 2.921875 28.796875q2.9375 9.59375 11.46875 12.796875q8.53125 3.203125 25.609375 4.265625l0 10.671875q-14.40625 -1.0625 -36.28125 -1.328125q-21.859375 -0.265625 -44.25 -0.265625q-26.140625 0 -48.28125 0.265625q-22.125 0.265625 -35.984375 1.328125l0 -10.671875q17.0625 -1.0625 25.59375 -4.265625q8.53125 -3.203125 11.453125 -12.796875q2.9375 -9.59375 2.9375 -28.796875l0 -264.53125q0 -19.734375 -2.9375 -29.0625q-2.921875 -9.34375 -11.71875 -12.796875q-8.796875 -3.46875 -25.328125 -4.015625l0 -10.65625q13.859375 0.53125 35.984375 1.0625q22.140625 0.53125 48.28125 0.53125q22.390625 0 44.25 -0.53125q21.875 -0.53125 36.28125 -1.0625z" fill-rule="nonzero"/></g></svg>