<svg version="1.1" viewBox="0.0 0.0 720.0 720.0" fill="none" stroke="none" stroke-linecap="square" stroke-miterlimit="10" xmlns:xlink="http://www.w3.org/1999/xlink" xmlns="http://www.w3.org/2000/svg"><clipPath id="p.0"><path d="m0 0l720.0 0l0 720.0l-720.0 0l0 -720.0z" clip-rule="nonzero"/></clipPath><g clip-path="url(#p.0)"><path fill="#000000" fill-opacity="0.0" d="m0 0l720.0 0l0 720.0l-720.0 0z" fill-rule="evenodd"/><defs><radialGradient id="p.1" gradientUnits="userSpaceOnUse" gradientTransform="matrix(22.563618502386973 0.0 0.0 22.563618502386973 0.0 0.0)" spreadMethod="pad" cx="15.954887730525849" cy="15.954887730525849" fx="15.954887730525849" fy="15.954887730525849" r="22.563617706298828"><stop offset="0.0" stop-color="#045093"/><stop offset="0.99999994" stop-color="#6f95b6"/><stop offset="1.0" stop-color="#d9d9d9"/></radialGradient></defs><path fill="url(#p.1)" d="m0 0l720.0 0l0 720.0l-720.0 0z" fill-rule="evenodd"/><path stroke="#ffffff" stroke-width="1.0" stroke-linejoin="round" stroke-linecap="butt" d="m0 0l720.0 0l0 720.0l-720.0 0z" fill-rule="evenodd"/><path fill="#ffffff" d="m537.0706 174.40625l0 10.125q-17.078125 3.734375 -36.546875 14.9375q-19.453125 11.203125 -40.796875 36.265625l-100.265625 119.46875l30.9375 -44.265625l126.9375 197.85938q7.46875 12.265625 16.0 19.734375q8.53125 7.46875 22.390625 12.796875l0 10.671875q-18.65625 -1.0625 -41.59375 -1.328125q-22.9375 -0.265625 -41.59375 -0.265625q-11.203125 0 -27.203125 0.265625q-16.0 0.265625 -40.53125 1.328125l0 -10.671875q21.859375 -1.0625 26.390625 -6.125q4.53125 -5.0625 -4.0 -17.875l-77.328125 -125.328125q-7.46875 -12.265625 -13.34375 -18.390625q-5.859375 -6.140625 -11.734375 -8.53125q-5.859375 -2.40625 -15.453125 -2.9375l0 -11.203125q23.46875 -0.53125 41.859375 -12.796875q18.40625 -12.265625 40.265625 -37.34375l31.46875 -37.859375q20.265625 -24.0 23.734375 -41.328125q3.46875 -17.34375 -6.9375 -26.9375q-10.390625 -9.609375 -31.734375 -10.140625l0 -10.125q13.34375 0.53125 25.34375 0.796875q12.0 0.265625 25.0625 0.53125q13.0625 0.265625 28.53125 0.265625q15.46875 0 28.0 -0.53125q12.53125 -0.53125 22.140625 -1.0625zm-184.53125 0l0 10.65625q-17.078125 0.546875 -25.875 4.015625q-8.796875 3.453125 -11.46875 12.796875q-2.65625 9.328125 -2.65625 29.0625l0 264.53125q0 19.203125 2.921875 28.796875q2.9375 9.59375 11.46875 12.796875q8.53125 3.203125 25.609375 4.265625l0 10.671875q-14.40625 -1.0625 -36.28125 -1.328125q-21.859375 -0.265625 -44.25 -0.265625q-25.60936 0 -48.281235 0.265625q-22.65625 0.265625 -35.984375 1.328125l0 -10.671875q17.0625 -1.0625 25.59375 -4.265625q8.53125 -3.203125 11.453125 -12.796875q2.9375 -9.59375 2.9375 -28.796875l0 -264.53125q0 -19.734375 -2.9375 -29.0625q-2.921875 -9.34375 -11.71875 -12.796875q-8.796875 -3.46875 -25.328125 -4.015625l0 -10.65625q13.328125 0.53125 35.984375 1.0625q22.671875 0.53125 48.281235 0.53125q22.390625 0 44.25 -0.53125q21.875 -0.53125 36.28125 -1.0625z" fill-rule="nonzero"/></g></svg>