<svg version="1.1" viewBox="0.0 0.0 720.0 720.0" fill="none" stroke="none" stroke-linecap="square" stroke-miterlimit="10" xmlns:xlink="http://www.w3.org/1999/xlink" xmlns="http://www.w3.org/2000/svg"><clipPath id="p.0"><path d="m0 0l720.0 0l0 720.0l-720.0 0l0 -720.0z" clip-rule="nonzero"/></clipPath><g clip-path="url(#p.0)"><path fill="#000000" fill-opacity="0.0" d="m0 0l720.0 0l0 720.0l-720.0 0z" fill-rule="evenodd"/><defs><radialGradient id="p.1" gradientUnits="userSpaceOnUse" gradientTransform="matrix(22.563618502386973 0.0 0.0 22.563618502386973 0.0 0.0)" spreadMethod="pad" cx="15.954887730525849" cy="15.954887730525849" fx="15.954887730525849" fy="15.954887730525849" r="22.563617706298828"><stop offset="0.0" stop-color="#045093"/><stop offset="0.99999994" stop-color="#6f95b6"/><stop offset="1.0" stop-color="#d9d9d9"/></radialGradient></defs><path fill="url(#p.1)" d="m0 0l720.0 0l0 720.0l-720.0 0z" fill-rule="evenodd"/><path stroke="#ffffff" stroke-width="1.0" stroke-linejoin="round" stroke-linecap="butt" d="m0 0l720.0 0l0 720.0l-720.0 0z" fill-rule="evenodd"/><path fill="#ffffff" d="m383.19327 174.40625l0 10.65625q-18.125 0.546875 -27.46875 4.015625q-9.328125 3.453125 -12.53125 12.796875q-3.1875 9.328125 -3.1875 29.0625l0 270.92188q0 16.546875 2.390625 24.546875q2.40625 8.0 9.59375 10.671875q7.203125 2.65625 21.609375 2.65625l26.140625 0q18.125 0 34.125 -8.53125q16.0 -8.53125 28.796875 -24.265625q12.796875 -15.734375 21.328125 -37.59375q8.546875 -21.875 12.8125 -48.546875l12.265625 0q-1.609375 18.140625 -1.609375 46.9375q0 12.265625 0.53125 35.734375q0.546875 23.46875 3.203125 48.53125q-27.1875 -1.0625 -61.328125 -1.328125q-34.125 -0.265625 -60.796875 -0.265625q-13.328125 0 -34.140625 0q-20.796875 0 -44.796875 0.265625q-24.0 0.265625 -48.53125 0.53125q-24.53125 0.265625 -46.390625 0.796875l0 -10.671875q17.0625 -1.0625 25.59375 -4.265625q8.53125 -3.203125 11.453125 -12.796875q2.9375 -9.59375 2.9375 -28.796875l0 -264.53125q0 -19.734375 -2.9375 -29.0625q-2.921875 -9.34375 -11.71875 -12.796875q-8.796875 -3.46875 -25.328125 -4.015625l0 -10.65625q13.328125 0.53125 35.984375 1.0625q22.671875 0.53125 48.28125 0.53125q23.453125 0 46.125 -0.53125q22.671875 -0.53125 37.59375 -1.0625z" fill-rule="nonzero"/></g></svg>