<svg version="1.1" viewBox="0.0 0.0 720.0 720.0" fill="none" stroke="none" stroke-linecap="square" stroke-miterlimit="10" xmlns:xlink="http://www.w3.org/1999/xlink" xmlns="http://www.w3.org/2000/svg"><clipPath id="p.0"><path d="m0 0l720.0 0l0 720.0l-720.0 0l0 -720.0z" clip-rule="nonzero"/></clipPath><g clip-path="url(#p.0)"><path fill="#000000" fill-opacity="0.0" d="m0 0l720.0 0l0 720.0l-720.0 0z" fill-rule="evenodd"/><defs><radialGradient id="p.1" gradientUnits="userSpaceOnUse" gradientTransform="matrix(22.563618502386973 0.0 0.0 22.563618502386973 0.0 0.0)" spreadMethod="pad" cx="15.954887730525849" cy="15.954887730525849" fx="15.954887730525849" fy="15.954887730525849" r="22.563617706298828"><stop offset="0.0" stop-color="#045093"/><stop offset="0.99999994" stop-color="#6f95b6"/><stop offset="1.0" stop-color="#d9d9d9"/></radialGradient></defs><path fill="url(#p.1)" d="m0 0l720.0 0l0 720.0l-720.0 0z" fill-rule="evenodd"/><path stroke="#ffffff" stroke-width="1.0" stroke-linejoin="round" stroke-linecap="butt" d="m0 0l720.0 0l0 720.0l-720.0 0z" fill-rule="evenodd"/><path fill="#ffffff" d="m589.5993 174.40625l0 10.65625q-17.0625 0.546875 -25.609375 4.015625q-8.53125 3.453125 -11.46875 12.796875q-2.921875 9.328125 -2.921875 29.0625l0 264.53125q0 19.203125 2.921875 28.796875q2.9375 9.59375 11.46875 12.796875q8.546875 3.203125 25.609375 4.265625l0 10.671875q-14.9375 -1.0625 -37.609375 -1.328125q-22.65625 -0.265625 -46.125 -0.265625q-25.59375 0 -48.0 0.265625q-22.40625 0.265625 -36.265625 1.328125l0 -10.671875q18.140625 -1.0625 27.46875 -4.265625q9.328125 -3.203125 12.53125 -12.796875q3.203125 -9.59375 3.203125 -28.796875l0 -288.53125l3.734375 0l-132.26562 345.59375l-8.53125 0l-143.99998 -343.46875l0 255.46875q0 29.34375 3.1875 45.078125q3.203125 15.71875 14.140625 22.390625q10.9375 6.671875 34.40625 9.328125l0 10.671875q-10.140625 -1.0625 -26.671875 -1.328125q-16.53125 -0.265625 -30.9375 -0.265625q-12.265625 0 -25.0625 0.265625q-12.796875 0.265625 -21.328125 1.328125l0 -10.671875q17.0625 -2.65625 25.59375 -9.0625q8.53125 -6.40625 11.46875 -21.0625q2.9375 -14.671875 2.9375 -40.265625l0 -240.0q0 -19.734375 -2.9375 -29.0625q-2.9375 -9.34375 -11.734375 -12.796875q-8.796875 -3.46875 -25.328125 -4.015625l0 -10.65625q8.53125 0.53125 21.328125 1.0625q12.796875 0.53125 25.0625 0.53125q22.9375 0 45.0625 -0.53125q22.140625 -0.53125 39.20311 -1.0625l112.0 270.39062l-13.328125 12.265625l107.203125 -281.0625q9.0625 0 18.65625 0q9.609375 0 19.203125 0q23.46875 0 46.125 -0.53125q22.671875 -0.53125 37.609375 -1.0625z" fill-rule="nonzero"/></g></svg>