<svg version="1.1" viewBox="0.0 0.0 720.0 720.0" fill="none" stroke="none" stroke-linecap="square" stroke-miterlimit="10" xmlns:xlink="http://www.w3.org/1999/xlink" xmlns="http://www.w3.org/2000/svg"><clipPath id="p.0"><path d="m0 0l720.0 0l0 720.0l-720.0 0l0 -720.0z" clip-rule="nonzero"/></clipPath><g clip-path="url(#p.0)"><path fill="#000000" fill-opacity="0.0" d="m0 0l720.0 0l0 720.0l-720.0 0z" fill-rule="evenodd"/><defs><radialGradient id="p.1" gradientUnits="userSpaceOnUse" gradientTransform="matrix(22.563618502386973 0.0 0.0 22.563618502386973 0.0 0.0)" spreadMethod="pad" cx="15.954887730525849" cy="15.954887730525849" fx="15.954887730525849" fy="15.954887730525849" r="22.563617706298828"><stop offset="0.0" stop-color="#045093"/><stop offset="0.99999994" stop-color="#6f95b6"/><stop offset="1.0" stop-color="#d9d9d9"/></radialGradient></defs><path fill="url(#p.1)" d="m0 0l720.0 0l0 720.0l-720.0 0z" fill-rule="evenodd"/><path stroke="#ffffff" stroke-width="1.0" stroke-linejoin="round" stroke-linecap="butt" d="m0 0l720.0 0l0 720.0l-720.0 0z" fill-rule="evenodd"/><path fill="#ffffff" d="m207.20898 174.40625q13.328125 0.53125 35.984375 1.0625q22.671875 0.53125 45.078125 0.53125q25.59375 0 49.59375 -0.53125q24.0 -0.53125 34.140625 -0.53125q74.125 0 110.921875 29.34375q36.796875 29.328125 36.796875 75.71875q0 19.203125 -7.46875 40.265625q-7.453125 21.0625 -25.328125 38.9375q-17.859375 17.859375 -48.796875 29.0625q-30.9375 11.203125 -77.859375 11.203125l-54.40625 0l0 -10.671875l49.0625 0q31.46875 0 47.734375 -14.390625q16.265625 -14.40625 22.390625 -37.875q6.140625 -23.46875 6.140625 -50.65625q0 -50.671875 -14.9375 -75.734375q-14.921875 -25.078125 -51.1875 -25.078125q-20.796875 0 -26.9375 9.078125q-6.125 9.0625 -6.125 36.796875l0 261.32812q0 20.796875 4.265625 30.9375q4.265625 10.125 16.53125 13.328125q12.265625 3.203125 36.265625 3.734375l0 11.734375q-16.53125 -0.53125 -42.671875 -1.0625q-26.125 -0.53125 -54.921875 -0.53125q-22.9375 0 -44.8125 0.53125q-21.859375 0.53125 -39.453125 1.0625l0 -10.671875q17.0625 -1.0625 25.59375 -4.265625q8.53125 -3.203125 11.453125 -12.796875q2.9375 -9.59375 2.9375 -28.796875l0 -264.53125q0 -19.734375 -2.9375 -29.0625q-2.921875 -9.34375 -11.71875 -12.796875q-8.796875 -3.46875 -25.328125 -4.015625l0 -10.65625z" fill-rule="nonzero"/></g></svg>