<svg version="1.1" viewBox="0.0 0.0 720.0 720.0" fill="none" stroke="none" stroke-linecap="square" stroke-miterlimit="10" xmlns:xlink="http://www.w3.org/1999/xlink" xmlns="http://www.w3.org/2000/svg"><clipPath id="p.0"><path d="m0 0l720.0 0l0 720.0l-720.0 0l0 -720.0z" clip-rule="nonzero"/></clipPath><g clip-path="url(#p.0)"><path fill="#000000" fill-opacity="0.0" d="m0 0l720.0 0l0 720.0l-720.0 0z" fill-rule="evenodd"/><defs><radialGradient id="p.1" gradientUnits="userSpaceOnUse" gradientTransform="matrix(22.563618502386973 0.0 0.0 22.563618502386973 0.0 0.0)" spreadMethod="pad" cx="15.954887730525849" cy="15.954887730525849" fx="15.954887730525849" fy="15.954887730525849" r="22.563617706298828"><stop offset="0.0" stop-color="#045093"/><stop offset="0.99999994" stop-color="#6f95b6"/><stop offset="1.0" stop-color="#d9d9d9"/></radialGradient></defs><path fill="url(#p.1)" d="m0 0l720.0 0l0 720.0l-720.0 0z" fill-rule="evenodd"/><path stroke="#ffffff" stroke-width="1.0" stroke-linejoin="round" stroke-linecap="butt" d="m0 0l720.0 0l0 720.0l-720.0 0z" fill-rule="evenodd"/><path fill="#ffffff" d="m355.73694 167.46875q31.46875 0 48.53125 6.671875q17.0625 6.65625 29.328125 14.125q6.40625 3.734375 10.40625 5.609375q4.0 1.859375 7.734375 1.859375q5.328125 0 7.71875 -5.859375q2.40625 -5.875 4.015625 -17.609375l12.265625 0q-0.53125 10.140625 -1.34375 24.28125q-0.796875 14.125 -1.0625 37.0625q-0.265625 22.921875 -0.265625 60.265625l-12.265625 0q-2.140625 -27.734375 -12.8125 -53.859375q-10.65625 -26.140625 -30.125 -42.9375q-19.46875 -16.8125 -47.734375 -16.8125q-25.59375 0 -42.125 14.40625q-16.53125 14.390625 -16.53125 40.0q0 21.328125 10.65625 36.53125q10.671875 15.203125 31.203125 29.609375q20.53125 14.390625 49.875 34.65625q25.59375 16.53125 45.859375 33.0625q20.265625 16.53125 32.53125 37.34375q12.265625 20.796875 12.265625 49.59375q0 35.203125 -18.40625 58.140625q-18.390625 22.921875 -48.265625 34.390625q-29.859375 11.46875 -65.59375 11.46875q-33.0625 0 -52.796875 -6.40625q-19.734375 -6.390625 -33.0625 -13.328125q-11.734375 -7.46875 -18.140625 -7.46875q-5.3281097 0 -7.7343597 5.875q-2.390625 5.859375 -4.0 17.59375l-12.265625 0q1.078125 -12.796875 1.34375 -29.859375q0.265625 -17.078125 0.53125 -44.53125q0.265625 -27.46875 0.265625 -69.609375l12.265625 0q2.125 35.203125 11.98436 65.875q9.875 30.65625 30.40625 49.328125q20.546875 18.65625 54.671875 18.65625q18.671875 0 33.328125 -6.65625q14.671875 -6.671875 23.734375 -20.0q9.078125 -13.34375 9.078125 -33.0625q0 -22.40625 -10.40625 -38.9375q-10.40625 -16.53125 -28.265625 -30.9375q-17.859375 -14.40625 -41.328125 -29.328125q-25.078125 -16.53125 -46.953125 -33.0625q-21.859375 -16.546875 -34.92186 -37.875q-13.0625 -21.328125 -13.0625 -50.671875q0 -33.59375 16.796875 -55.1875q16.79686 -21.609375 44.26561 -32.0q27.46875 -10.40625 58.40625 -10.40625z" fill-rule="nonzero"/></g></svg>