<svg version="1.1" viewBox="0.0 0.0 720.0 720.0" fill="none" stroke="none" stroke-linecap="square" stroke-miterlimit="10" xmlns:xlink="http://www.w3.org/1999/xlink" xmlns="http://www.w3.org/2000/svg"><clipPath id="p.0"><path d="m0 0l720.0 0l0 720.0l-720.0 0l0 -720.0z" clip-rule="nonzero"/></clipPath><g clip-path="url(#p.0)"><path fill="#000000" fill-opacity="0.0" d="m0 0l720.0 0l0 720.0l-720.0 0z" fill-rule="evenodd"/><defs><radialGradient id="p.1" gradientUnits="userSpaceOnUse" gradientTransform="matrix(22.563618502386973 0.0 0.0 22.563618502386973 0.0 0.0)" spreadMethod="pad" cx="15.954887730525849" cy="15.954887730525849" fx="15.954887730525849" fy="15.954887730525849" r="22.563617706298828"><stop offset="0.0" stop-color="#045093"/><stop offset="0.99999994" stop-color="#6f95b6"/><stop offset="1.0" stop-color="#d9d9d9"/></radialGradient></defs><path fill="url(#p.1)" d="m0 0l720.0 0l0 720.0l-720.0 0z" fill-rule="evenodd"/><path stroke="#ffffff" stroke-width="1.0" stroke-linejoin="round" stroke-linecap="butt" d="m0 0l720.0 0l0 720.0l-720.0 0z" fill-rule="evenodd"/><path fill="#ffffff" d="m524.25903 174.40625q-2.125 27.203125 -2.9375 52.265625q-0.796875 25.0625 -0.796875 38.390625q0 11.734375 0.53125 22.40625q0.546875 10.671875 1.078125 18.140625l-12.2655945 0q-8.53125 -44.8125 -21.609375 -70.9375q-13.0625 -26.140625 -31.203125 -37.0625q-18.125 -10.9375 -42.65625 -10.9375l-12.265625 0l0 304.53125q0 21.328125 4.53125 32.0q4.53125 10.65625 16.796875 14.125q12.265625 3.46875 35.734375 4.0l0 10.671875q-16.53125 -0.53125 -44.0 -1.0625q-27.46875 -0.53125 -57.328125 -0.53125q-29.328125 0 -55.46875 0.53125q-26.125 0.53125 -42.125 1.0625l0 -10.671875q24.0 -0.53125 36.265625 -4.0q12.265625 -3.46875 16.53125 -14.125q4.265625 -10.671875 4.265625 -32.0l0 -304.53125l-11.734375 0q-24.53125 0 -42.671875 10.9375q-18.125 10.921875 -30.9375 36.796875q-12.796875 25.859375 -22.390625 71.203125l-12.265625 0q1.0625 -7.46875 1.328125 -18.140625q0.265625 -10.671875 0.265625 -22.40625q0 -13.328125 -0.796875 -38.390625q-0.796875 -25.0625 -2.9375 -52.265625q24.53125 0.53125 53.59375 1.0625q29.078125 0.53125 58.40625 0.53125q29.34375 0 52.796875 0q24.0 0 53.0625 0q29.078125 0 58.40625 -0.53125q29.34375 -0.53125 52.796844 -1.0625z" fill-rule="nonzero"/></g></svg>