<svg version="1.1" viewBox="0.0 0.0 720.0 720.0" fill="none" stroke="none" stroke-linecap="square" stroke-miterlimit="10" xmlns:xlink="http://www.w3.org/1999/xlink" xmlns="http://www.w3.org/2000/svg"><clipPath id="p.0"><path d="m0 0l720.0 0l0 720.0l-720.0 0l0 -720.0z" clip-rule="nonzero"/></clipPath><g clip-path="url(#p.0)"><path fill="#000000" fill-opacity="0.0" d="m0 0l720.0 0l0 720.0l-720.0 0z" fill-rule="evenodd"/><defs><radialGradient id="p.1" gradientUnits="userSpaceOnUse" gradientTransform="matrix(22.563618502386973 0.0 0.0 22.563618502386973 0.0 0.0)" spreadMethod="pad" cx="15.954887730525849" cy="15.954887730525849" fx="15.954887730525849" fy="15.954887730525849" r="22.563617706298828"><stop offset="0.0" stop-color="#045093"/><stop offset="0.99999994" stop-color="#6f95b6"/><stop offset="1.0" stop-color="#d9d9d9"/></radialGradient></defs><path fill="url(#p.1)" d="m0 0l720.0 0l0 720.0l-720.0 0z" fill-rule="evenodd"/><path stroke="#ffffff" stroke-width="1.0" stroke-linejoin="round" stroke-linecap="butt" d="m0 0l720.0 0l0 720.0l-720.0 0z" fill-rule="evenodd"/><path fill="#ffffff" d="m543.46216 174.40625l0 10.65625q-11.734375 4.28125 -24.796875 18.6875q-13.0624695 14.390625 -24.265594 44.78125l-112.53125 304.53125q-4.265625 -0.53125 -9.078125 -0.53125q-4.796875 0 -9.59375 0q-4.265625 0 -9.0625 0q-4.796875 0 -9.0625 0.53125l-136.0 -333.85938q-7.46875 -19.203125 -16.546875 -26.390625q-9.0625 -7.203125 -17.0625 -7.75l0 -10.65625q16.0 0.53125 37.59375 1.0625q21.609375 0.53125 43.484375 0.53125q24.53125 0 46.125 -0.53125q21.609375 -0.53125 34.9375 -1.0625l0 10.65625q-17.0625 0.546875 -26.671875 4.015625q-9.59375 3.453125 -10.671875 12.796875q-1.0625 9.328125 6.40625 28.0l97.0625 246.92188l-11.1875 13.34375l73.59375 -198.40625q14.390625 -40.0 14.921875 -62.921875q0.546875 -22.9375 -11.1875 -33.0625q-11.734375 -10.140625 -33.609375 -10.6875l0 -10.65625q18.140625 0.53125 34.140625 1.0625q16.0 0.53125 32.53125 0.53125q11.7343445 0 22.12497 -0.53125q10.40625 -0.53125 18.40625 -1.0625z" fill-rule="nonzero"/></g></svg>