<svg version="1.1" viewBox="0.0 0.0 720.0 720.0" fill="none" stroke="none" stroke-linecap="square" stroke-miterlimit="10" xmlns:xlink="http://www.w3.org/1999/xlink" xmlns="http://www.w3.org/2000/svg"><clipPath id="p.0"><path d="m0 0l720.0 0l0 720.0l-720.0 0l0 -720.0z" clip-rule="nonzero"/></clipPath><g clip-path="url(#p.0)"><path fill="#000000" fill-opacity="0.0" d="m0 0l720.0 0l0 720.0l-720.0 0z" fill-rule="evenodd"/><defs><radialGradient id="p.1" gradientUnits="userSpaceOnUse" gradientTransform="matrix(22.563618502386973 0.0 0.0 22.563618502386973 0.0 0.0)" spreadMethod="pad" cx="15.954887730525849" cy="15.954887730525849" fx="15.954887730525849" fy="15.954887730525849" r="22.563617706298828"><stop offset="0.0" stop-color="#045093"/><stop offset="0.99999994" stop-color="#6f95b6"/><stop offset="1.0" stop-color="#d9d9d9"/></radialGradient></defs><path fill="url(#p.1)" d="m0 0l720.0 0l0 720.0l-720.0 0z" fill-rule="evenodd"/><path stroke="#ffffff" stroke-width="1.0" stroke-linejoin="round" stroke-linecap="butt" d="m0 0l720.0 0l0 720.0l-720.0 0z" fill-rule="evenodd"/><path fill="#ffffff" d="m621.33795 174.40625l0 10.65625q-11.734375 4.28125 -24.546875 18.421875q-12.796875 14.125 -22.390625 45.046875l-93.875 304.53125q-4.265625 -0.53125 -9.0625 -0.53125q-4.796875 0 -9.59375 0q-4.796875 0 -9.609375 0q-4.796875 0 -9.0625 0.53125l-112.0 -339.1875q-5.328125 -16.53125 -13.0625 -22.390625q-7.734375 -5.875 -16.265625 -6.421875l0 -10.65625q14.9375 0.53125 35.46875 1.0625q20.53125 0.53125 40.796875 0.53125q23.46875 0 44.0 -0.53125q20.53125 -0.53125 32.796875 -1.0625l0 10.65625q-16.0 0.546875 -25.34375 3.75q-9.328125 3.1875 -10.65625 12.265625q-1.328125 9.0625 5.0625 28.796875l75.734375 231.45312l-12.265625 21.875l60.265625 -191.46875q12.796875 -40.53125 12.265625 -63.453125q-0.53125 -22.9375 -12.265625 -32.796875q-11.734375 -9.875 -33.59375 -10.421875l0 -10.65625q18.125 0.53125 34.125 1.0625q16.0 0.53125 32.0 0.53125q12.265625 0 22.671875 -0.53125q10.40625 -0.53125 18.40625 -1.0625zm-380.79688 0l0 10.65625q-10.671875 1.609375 -14.9375 7.75q-4.265625 6.125 -3.46875 16.0q0.796875 9.859375 4.53125 21.0625l81.59375 236.79688l-14.390625 19.203125l68.265625 -199.46875l7.46875 14.390625l-83.734375 252.26562q-4.265625 -0.53125 -9.078125 -0.53125q-4.796875 0 -9.59375 0q-4.796875 0 -9.59375 0q-4.796875 0 -9.0625 0.53125l-119.46875 -333.85938q-6.9375 -19.734375 -16.28125 -26.65625q-9.328125 -6.9375 -17.328125 -7.484375l0 -10.65625q16.0 0.53125 37.859375 1.0625q21.875 0.53125 41.609375 0.53125q21.34375 0 38.140625 -0.53125q16.796875 -0.53125 27.46875 -1.0625z" fill-rule="nonzero"/></g></svg>