<svg version="1.1" viewBox="0.0 0.0 720.0 720.0" fill="none" stroke="none" stroke-linecap="square" stroke-miterlimit="10" xmlns:xlink="http://www.w3.org/1999/xlink" xmlns="http://www.w3.org/2000/svg"><clipPath id="p.0"><path d="m0 0l720.0 0l0 720.0l-720.0 0l0 -720.0z" clip-rule="nonzero"/></clipPath><g clip-path="url(#p.0)"><path fill="#000000" fill-opacity="0.0" d="m0 0l720.0 0l0 720.0l-720.0 0z" fill-rule="evenodd"/><defs><radialGradient id="p.1" gradientUnits="userSpaceOnUse" gradientTransform="matrix(22.563618502386973 0.0 0.0 22.563618502386973 0.0 0.0)" spreadMethod="pad" cx="15.954887730525849" cy="15.954887730525849" fx="15.954887730525849" fy="15.954887730525849" r="22.563617706298828"><stop offset="0.0" stop-color="#045093"/><stop offset="0.99999994" stop-color="#6f95b6"/><stop offset="1.0" stop-color="#d9d9d9"/></radialGradient></defs><path fill="url(#p.1)" d="m0 0l720.0 0l0 720.0l-720.0 0z" fill-rule="evenodd"/><path stroke="#ffffff" stroke-width="1.0" stroke-linejoin="round" stroke-linecap="butt" d="m0 0l720.0 0l0 720.0l-720.0 0z" fill-rule="evenodd"/><path fill="#ffffff" d="m335.20392 173.875l0 11.1875q-24.0 0 -30.671875 4.546875q-6.671875 4.53125 0.796875 15.734375l211.20312 308.79688q10.671875 14.921875 17.0625 20.265625q6.40625 5.328125 17.0625 6.390625l0 11.203125q-10.65625 -0.53125 -30.921875 -1.328125q-20.265625 -0.8125 -42.140625 -0.8125q-24.0 0 -48.796875 0.8125q-24.796875 0.796875 -37.0625 1.328125l0 -11.203125q24.53125 0 31.734375 -3.46875q7.203125 -3.46875 -0.265625 -14.65625l-211.73439 -310.9375q-10.140625 -15.46875 -16.546875 -20.796875q-6.390625 -5.328125 -17.59375 -5.875l0 -11.1875q11.203125 0.53125 32.796875 1.328125q21.609375 0.796875 43.46875 0.796875q24.000015 0 46.125015 -0.796875q22.140625 -0.796875 35.484375 -1.328125zm4.796875 188.26562q0 0 1.0625 3.46875q1.0625 3.453125 2.125 6.921875q1.078125 3.46875 1.078125 3.46875l-53.328125 73.0625q-21.34375 28.8125 -24.015625 48.8125q-2.65625 19.984375 9.34375 30.921875q12.0 10.9375 35.46875 12.53125l0 10.671875q-7.46875 -0.53125 -18.9375 -0.796875q-11.46875 -0.265625 -24.0 -0.53125q-12.53125 -0.265625 -23.468765 -0.265625q-10.921875 0 -17.859375 0q-14.9375 0 -27.734375 0.265625q-12.796875 0.265625 -21.328125 1.328125l0 -10.671875q18.65625 -6.390625 37.859375 -22.65625q19.203125 -16.265625 39.46875 -42.40625l84.26564 -114.125zm186.67188 -187.73438l0 10.65625q-17.609375 4.8125 -34.953125 20.28125q-17.328125 15.453125 -32.25 35.71875l-86.40625 115.203125q0 0 -1.875 -6.921875q-1.859375 -6.9375 -1.859375 -6.9375l54.9375 -74.140625q20.265625 -25.59375 24.265625 -43.71875q4.0 -18.140625 -6.140625 -28.265625q-10.125 -10.140625 -31.984375 -11.21875l0 -10.65625q10.125 0.53125 22.390625 0.796875q12.265625 0.265625 24.265625 0.53125q12.0 0.265625 20.53125 0.265625q15.46875 0 28.265625 -0.53125q12.8125 -0.53125 20.8125 -1.0625z" fill-rule="nonzero"/></g></svg>