<svg version="1.1" viewBox="0.0 0.0 720.0 720.0" fill="none" stroke="none" stroke-linecap="square" stroke-miterlimit="10" xmlns:xlink="http://www.w3.org/1999/xlink" xmlns="http://www.w3.org/2000/svg"><clipPath id="p.0"><path d="m0 0l720.0 0l0 720.0l-720.0 0l0 -720.0z" clip-rule="nonzero"/></clipPath><g clip-path="url(#p.0)"><path fill="#000000" fill-opacity="0.0" d="m0 0l720.0 0l0 720.0l-720.0 0z" fill-rule="evenodd"/><defs><radialGradient id="p.1" gradientUnits="userSpaceOnUse" gradientTransform="matrix(22.563618502386973 0.0 0.0 22.563618502386973 0.0 0.0)" spreadMethod="pad" cx="15.954887730525849" cy="15.954887730525849" fx="15.954887730525849" fy="15.954887730525849" r="22.563617706298828"><stop offset="0.0" stop-color="#045093"/><stop offset="0.99999994" stop-color="#6f95b6"/><stop offset="1.0" stop-color="#d9d9d9"/></radialGradient></defs><path fill="url(#p.1)" d="m0 0l720.0 0l0 720.0l-720.0 0z" fill-rule="evenodd"/><path stroke="#ffffff" stroke-width="1.0" stroke-linejoin="round" stroke-linecap="butt" d="m0 0l720.0 0l0 720.0l-720.0 0z" fill-rule="evenodd"/><path fill="#ffffff" d="m522.9308 173.875l0 10.65625q-11.7343445 4.8125 -23.99997 18.953125q-12.265625 14.125 -27.203125 42.921875l-100.796875 199.46875l-25.0625 0l-124.796875 -230.9375q-9.609375 -18.140625 -17.34375 -24.0q-7.71875 -5.875 -13.59375 -5.875l0 -11.1875q14.40625 1.59375 29.59375 2.125q15.203125 0.53125 33.34375 0.53125q23.46875 0 50.65625 -0.796875q27.203125 -0.796875 49.609375 -1.859375l0 11.1875q-13.34375 0 -24.015625 2.140625q-10.65625 2.140625 -14.921875 7.734375q-4.265625 5.59375 2.140625 17.859375l84.265625 162.14062l-16.546875 21.328125l54.9375 -110.390625q19.734375 -38.40625 21.0625 -60.265625q1.34375 -21.875 -10.65625 -31.203125q-12.0 -9.34375 -33.875 -9.875l0 -10.65625q18.140625 0.53125 34.140625 1.0625q16.0 0.53125 32.53125 0.53125q11.734375 0 22.125 -0.53125q10.4062195 -0.53125 18.40622 -1.0625zm-114.12497 187.73438l0 133.85938q0 19.203125 2.921875 28.796875q2.9375 9.59375 11.46875 12.796875q8.53125 3.203125 25.609375 4.265625l0 10.671875q-14.40625 -1.0625 -37.078125 -1.328125q-22.65625 -0.265625 -45.0625 -0.265625q-25.0625 0 -47.46875 0.265625q-22.390625 0.265625 -35.203125 1.328125l0 -10.671875q17.078125 -1.0625 25.609375 -4.265625q8.53125 -3.203125 11.453125 -12.796875q2.9375 -9.59375 2.9375 -28.796875l0 -109.328125l46.40625 33.0625l38.40625 -57.59375z" fill-rule="nonzero"/></g></svg>